<svg xmlns="http://www.w3.org/2000/svg" aria-hidden="true" style="position:absolute;width:0;height:0;overflow:hidden">
  <defs>

<symbol id="icon-burger-menu" viewBox="0 0 24 24">
<path d="M3 13h18c0.552 0 1-0.448 1-1s-0.448-1-1-1h-18c-0.552 0-1 0.448-1 1s0.448 1 1 1zM3 7h18c0.552 0 1-0.448 1-1s-0.448-1-1-1h-18c-0.552 0-1 0.448-1 1s0.448 1 1 1zM3 19h18c0.552 0 1-0.448 1-1s-0.448-1-1-1h-18c-0.552 0-1 0.448-1 1s0.448 1 1 1z"></path>
</symbol>
<symbol id="icon-close" viewBox="0 0 20 20">
<path d="M14.348 14.849c-0.469 0.469-1.229 0.469-1.697 0l-2.651-3.030-2.651 3.029c-0.469 0.469-1.229 0.469-1.697 0-0.469-0.469-0.469-1.229 0-1.697l2.758-3.15-2.759-3.152c-0.469-0.469-0.469-1.228 0-1.697s1.228-0.469 1.697 0l2.652 3.031 2.651-3.031c0.469-0.469 1.228-0.469 1.697 0s0.469 1.229 0 1.697l-2.758 3.152 2.758 3.15c0.469 0.469 0.469 1.229 0 1.698z"></path>
</symbol>
<symbol id="icon-linkedin" viewBox="0 0 32 32">
<path fill="#0077b5" style="fill: var(--color1, #0077b5)" d="M27.263 27.269h-4.739v-7.425c0-1.771-0.036-4.049-2.469-4.049-2.471 0-2.848 1.927-2.848 3.919v7.556h-4.739v-15.269h4.552v2.081h0.061c0.636-1.2 2.183-2.467 4.493-2.467 4.801 0 5.689 3.16 5.689 7.273zM7.116 9.911c-1.525 0-2.751-1.235-2.751-2.753 0-1.517 1.227-2.751 2.751-2.751 1.52 0 2.752 1.233 2.752 2.751 0 1.519-1.233 2.753-2.752 2.753zM9.492 27.269h-4.752v-15.269h4.752zM29.633 0h-27.272c-1.305 0-2.361 1.032-2.361 2.305v27.389c0 1.275 1.056 2.305 2.361 2.305h27.268c1.304 0 2.371-1.031 2.371-2.305v-27.389c0-1.273-1.067-2.305-2.371-2.305z"></path>
</symbol>
<symbol id="icon-whatsapp" viewBox="0 0 32 32">
<path fill="#25d366" style="fill: var(--color1, #25d366)" d="M23.331 19.176c-0.401-0.2-2.356-1.156-2.72-1.288-0.364-0.135-0.631-0.2-0.897 0.2-0.263 0.393-1.028 1.285-1.259 1.549-0.233 0.26-0.465 0.28-0.861 0.1-0.4-0.2-1.684-0.62-3.204-1.98-1.184-1.060-1.979-2.36-2.213-2.76-0.232-0.4-0.025-0.62 0.173-0.82 0.181-0.18 0.401-0.46 0.601-0.697 0.195-0.241 0.259-0.401 0.396-0.661 0.133-0.28 0.065-0.5-0.033-0.699-0.1-0.2-0.896-2.16-1.229-2.941-0.32-0.779-0.649-0.68-0.896-0.68-0.229-0.020-0.495-0.020-0.761-0.020s-0.697 0.099-1.063 0.479c-0.364 0.4-1.393 1.36-1.393 3.3s1.427 3.82 1.625 4.1c0.199 0.26 2.807 4.26 6.8 5.98 0.952 0.4 1.693 0.64 2.272 0.839 0.952 0.303 1.82 0.26 2.507 0.161 0.765-0.121 2.356-0.961 2.688-1.901 0.34-0.94 0.34-1.72 0.24-1.9-0.099-0.18-0.36-0.28-0.76-0.46zM16.081 29h-0.021c-2.36 0-4.699-0.64-6.74-1.84l-0.48-0.285-5 1.3 1.34-4.86-0.319-0.5c-1.32-2.101-2.021-4.521-2.021-7.013 0-7.26 5.94-13.18 13.256-13.18 3.539 0 6.86 1.38 9.361 3.88 2.5 2.479 3.879 5.8 3.879 9.32-0.005 7.259-5.947 13.18-13.247 13.18zM27.36 4.599c-3.040-2.939-7.040-4.599-11.3-4.599-8.776 0-15.921 7.112-15.925 15.857 0 2.795 0.732 5.52 2.127 7.927l-2.261 8.216 8.447-2.203c2.328 1.257 4.947 1.925 7.613 1.929h0.008c8.78 0 15.928-7.115 15.932-15.861 0-4.235-1.653-8.22-4.66-11.215z"></path>
</symbol>
<symbol id="icon-github" viewBox="0 0 32 32">
<path d="M16 0.395c-8.836 0-16 7.163-16 16 0 7.069 4.585 13.067 10.942 15.182 0.8 0.148 1.094-0.347 1.094-0.77 0-0.381-0.015-1.642-0.022-2.979-4.452 0.968-5.391-1.888-5.391-1.888-0.728-1.849-1.776-2.341-1.776-2.341-1.452-0.993 0.11-0.973 0.11-0.973 1.606 0.113 2.452 1.649 2.452 1.649 1.427 2.446 3.743 1.739 4.656 1.33 0.143-1.034 0.558-1.74 1.016-2.14-3.554-0.404-7.29-1.777-7.29-7.907 0-1.747 0.625-3.174 1.649-4.295-0.166-0.403-0.714-2.030 0.155-4.234 0 0 1.344-0.43 4.401 1.64 1.276-0.355 2.645-0.532 4.005-0.539 1.359 0.006 2.729 0.184 4.008 0.539 3.054-2.070 4.395-1.64 4.395-1.64 0.871 2.204 0.323 3.831 0.157 4.234 1.026 1.12 1.647 2.548 1.647 4.295 0 6.145-3.743 7.498-7.306 7.895 0.574 0.497 1.085 1.47 1.085 2.963 0 2.141-0.019 3.864-0.019 4.391 0 0.426 0.288 0.925 1.099 0.768 6.354-2.118 10.933-8.113 10.933-15.18 0-8.837-7.164-16-16-16z"></path>
</symbol>
<symbol id="icon-logo" viewBox="0 0 24 24">
<path d="M21.984 17.016v-7.031h-3.984v7.031h3.984zM23.016 8.016q0.422 0 0.703 0.281t0.281 0.703v9.984q0 0.422-0.281 0.727t-0.703 0.305h-6q-0.422 0-0.727-0.305t-0.305-0.727v-9.984q0-0.422 0.305-0.703t0.727-0.281h6zM3.984 6v11.016h10.031v3h-14.016v-3h2.016v-11.016q0-0.797 0.586-1.406t1.383-0.609h18v2.016h-18z"></path>
</symbol>
<symbol id="icon-axios"  viewBox="0 0 128 128">
  <g transform="matrix(0.65827504,0,0,0.65827504,2,53.815056)">
    <path
       d="m 93.295,3.65206 -6.939,5.65289 h 4.5316 V 27.68 l 2.4074,-1.9389 z"
       fill="#5a29e4" />
    <path
       d="m 95.295,24.0997 7.061,-5.7947 H 97.6975 V 0.350052 L 95.295,2.02275 Z"
       fill="#5a29e4" />
    <path
       d="m 182.695,6.95295 c 0.8,0.416 1.376,0.768 1.728,1.056 l 2.496,-4.752 c -1.248,-0.768 -2.752,-1.456 -4.512,-2.064 -1.728,-0.607995 -3.6,-0.911998 -5.616,-0.911998 -1.92,0 -3.696,0.32 -5.328,0.959998 -1.6,0.64 -2.88,1.584 -3.84,2.832 -0.928,1.248 -1.392,2.8 -1.392,4.656 0,2.08005 0.656,3.68005 1.968,4.80005 1.344,1.088 3.392,1.984 6.144,2.688 2.208,0.576 3.984,1.104 5.328,1.584 1.376,0.448 2.064,1.2 2.064,2.256 0,1.568 -1.472,2.352 -4.416,2.352 -1.472,0 -2.864,-0.176 -4.176,-0.528 -1.312,-0.352 -2.464,-0.784 -3.456,-1.296 -0.96,-0.512 -1.648,-0.976 -2.064,-1.392 l -2.592,5.04 c 1.664,1.056 3.568,1.888 5.712,2.496 2.144,0.608 4.304,0.912 6.48,0.912 1.888,0 3.648,-0.256 5.28,-0.768 1.632,-0.544 2.944,-1.408 3.936,-2.592 1.024,-1.216 1.536,-2.8161 1.536,-4.8001 0,-1.632 -0.384,-2.9439 -1.152,-3.9359 -0.736,-1.024 -1.808,-1.84 -3.216,-2.448 -1.376,-0.608 -3.008,-1.152 -4.896,-1.632 -2.144,-0.512 -3.776,-0.976 -4.896,-1.392 -1.088,-0.41605 -1.632,-1.12005 -1.632,-2.11205 0,-1.696 1.504,-2.544 4.512,-2.544 1.12,0 2.208,0.16 3.264,0.48 1.056,0.288 1.968,0.64 2.736,1.056 z"
       fill="#5a29e4" />
    <path 
       d="m 132.182,27.497 c -2.112,0 -4.032,-0.368 -5.76,-1.104 -1.728,-0.768 -3.217,-1.792 -4.465,-3.072 -1.248,-1.312 -2.208,-2.784 -2.88,-4.416 -0.671,-1.632 -1.008,-3.312 -1.008,-5.04 0,-1.76 0.352,-3.456 1.056,-5.08805 0.704,-1.632 1.697,-3.07199 2.977,-4.32 1.28,-1.28 2.783,-2.288 4.511,-3.024 1.728,-0.735997 3.616,-1.104001 5.664,-1.104001 2.112,0 4.033,0.400003 5.761,1.200001 1.728,0.768 3.2,1.808 4.416,3.12 1.248,1.28 2.207,2.736 2.879,4.368 0.672,1.63205 1.009,3.29595 1.009,4.99195 0,1.76 -0.352,3.4561 -1.056,5.0881 -0.704,1.6 -1.697,3.04 -2.977,4.32 -1.248,1.248 -2.735,2.24 -4.463,2.976 -1.728,0.736 -3.616,1.104 -5.664,1.104 z m -8.257,-13.584 c 0,1.44 0.337,2.816 1.009,4.128 0.671,1.28 1.615,2.32 2.831,3.12 1.248,0.8 2.736,1.2 4.464,1.2 1.76,0 3.248,-0.416 4.464,-1.248 1.217,-0.864 2.144,-1.936 2.784,-3.2161 0.64,-1.312 0.961,-2.6559 0.961,-4.0319 0,-1.44 -0.336,-2.8001 -1.008,-4.08005 -0.672,-1.28 -1.632,-2.304 -2.881,-3.072 -1.216,-0.8 -2.671,-1.2 -4.367,-1.2 -1.76,0 -3.265,0.416 -4.513,1.248 -1.216,0.832 -2.144,1.88801 -2.784,3.16801 -0.64,1.28004 -0.96,2.60804 -0.96,3.98404 z"
       fill="#5a29e4" />
    <path 
       d="M 0,27.305 11.712,0.472954 h 4.752 L 28.128,27.305 H 21.984 L 19.296,21.017 H 8.88 L 6.192,27.305 Z M 14.112,7.52895 10.176,15.977 h 7.728 z"
       fill="#5a29e4" />
    <path
       d="m 50.8211,0.472954 7.392,9.503996 7.392,-9.503996 h 6.288 L 61.2851,14.057 71.5571,27.305 h -6.288 l -7.056,-9.12 -7.008,9.12 h -6.384 L 55.1411,14.057 44.4851,0.472954 Z"
       fill="#5a29e4" />
  </g>
</symbol>
<symbol id="icon-react" viewBox="0 0 128 128"><g fill="#61DAFB"><circle cx="64" cy="47.5" r="9.3"/><path d="M64 81.7C71.3 88.8 78.5 93 84.3 93c1.9 0 3.7-.4 5.2-1.3 5.2-3 7.1-10.5 5.3-21.2-.3-1.9-.7-3.8-1.2-5.8 2-.6 3.8-1.2 5.6-1.8 10.1-3.9 15.7-9.3 15.7-15.2 0-6-5.6-11.4-15.7-15.2-1.8-.7-3.6-1.3-5.6-1.8.5-2 .9-3.9 1.2-5.8 1.7-10.9-.2-18.5-5.4-21.5-1.5-.9-3.3-1.3-5.2-1.3-5.7 0-13 4.2-20.3 11.3C56.7 6.3 49.5 2.1 43.7 2.1c-1.9 0-3.7.4-5.2 1.3-5.2 3-7.1 10.5-5.3 21.2.3 1.9.7 3.8 1.2 5.8-2 .6-3.8 1.2-5.6 1.8-10.1 3.9-15.7 9.3-15.7 15.2 0 6 5.6 11.4 15.7 15.2 1.8.7 3.6 1.3 5.6 1.8-.5 2-.9 3.9-1.2 5.8-1.7 10.7.2 18.3 5.3 21.2 1.5.9 3.3 1.3 5.2 1.3 5.8.2 13-4 20.3-11zm-5.6-13.5c1.8.1 3.7.1 5.6.1 1.9 0 3.8 0 5.6-.1-1.8 2.4-3.7 4.6-5.6 6.7-1.9-2.1-3.8-4.3-5.6-6.7zM46 57.9c1 1.7 1.9 3.3 3 4.9-3.1-.4-6-.9-8.8-1.5.9-2.7 1.9-5.5 3.1-8.3.8 1.6 1.7 3.3 2.7 4.9zm-5.8-24.1c2.8-.6 5.7-1.1 8.8-1.5-1 1.6-2 3.2-3 4.9-1 1.7-1.9 3.3-2.7 5-1.3-2.9-2.3-5.7-3.1-8.4zm5.5 13.7c1.3-2.7 2.7-5.4 4.3-8.1 1.5-2.6 3.2-5.2 4.9-7.8 3-.2 6-.3 9.1-.3 3.2 0 6.2.1 9.1.3 1.8 2.6 3.4 5.2 4.9 7.8 1.6 2.7 3 5.4 4.3 8.1-1.3 2.7-2.7 5.4-4.3 8.1-1.5 2.6-3.2 5.2-4.9 7.8-3 .2-6 .3-9.1.3-3.2 0-6.2-.1-9.1-.3-1.8-2.6-3.4-5.2-4.9-7.8-1.6-2.7-3-5.4-4.3-8.1zm39.1-5.4l-2.7-5c-1-1.7-1.9-3.3-3-4.9 3.1.4 6 .9 8.8 1.5-.9 2.8-1.9 5.6-3.1 8.4zm0 10.8c1.2 2.8 2.2 5.6 3.1 8.3-2.8.6-5.7 1.1-8.8 1.5 1-1.6 2-3.2 3-4.9.9-1.5 1.8-3.2 2.7-4.9zm2.3 34.7c-.8.5-1.8.7-2.9.7-4.9 0-11-4-17-10 2.9-3.1 5.7-6.6 8.5-10.5 4.7-.4 9.2-1.1 13.4-2.1.5 1.8.8 3.6 1.1 5.4 1.4 8.5.3 14.6-3.1 16.5zm5.2-52.7c11.2 3.2 17.9 8.1 17.9 12.6 0 3.9-4.6 7.8-12.7 10.9-1.6.6-3.4 1.2-5.2 1.7-1.3-4.1-2.9-8.3-4.9-12.6 2-4.3 3.7-8.5 4.9-12.6zm-8-28.2c1.1 0 2 .2 2.9.7 3.3 1.9 4.5 7.9 3.1 16.5-.3 1.7-.7 3.5-1.1 5.4-4.2-.9-8.7-1.6-13.4-2.1-2.7-3.9-5.6-7.4-8.5-10.5 6-5.9 12.1-10 17-10zM69.6 26.8c-1.8-.1-3.7-.1-5.6-.1s-3.8 0-5.6.1c1.8-2.4 3.7-4.6 5.6-6.7 1.9 2.1 3.8 4.4 5.6 6.7zM40.9 7.4c.8-.5 1.8-.7 2.9-.7 4.9 0 11 4 17 10-2.9 3.1-5.7 6.6-8.5 10.5-4.7.4-9.2 1.1-13.4 2.1-.5-1.8-.8-3.6-1.1-5.4-1.4-8.5-.3-14.5 3.1-16.5zm-5.2 52.7C24.5 56.9 17.8 52 17.8 47.5c0-3.9 4.6-7.8 12.7-10.9 1.6-.6 3.4-1.2 5.2-1.7 1.3 4.1 2.9 8.3 4.9 12.6-2 4.3-3.7 8.6-4.9 12.6zm2.1 11c.3-1.7.7-3.5 1.1-5.4 4.2.9 8.7 1.6 13.4 2.1 2.7 3.9 5.6 7.4 8.5 10.5-6 5.9-12.1 10-17 10-1.1 0-2-.2-2.9-.7-3.4-1.9-4.5-8-3.1-16.5zm-4.2 41.2c2.2-2.7 2.3-5.7 1.1-8.7-1.2-3-3.7-4.4-6.8-4.5-3.7-.1-7.5 0-11.2 0H16V125h3v-9.8h4.7c.6 0 1.1.2 1.4.7l6 9.3c.1.2.4.5.6.5h3.9c-2.4-3.7-4.7-7.2-7.1-10.8 2.1-.3 3.9-1 5.1-2.6zm-14.6-.2v-9.9h1.1c2.3 0 4.7-.1 7 .1 2.7.1 4.6 2.2 4.6 4.9s-2.2 4.8-4.9 4.9c-2.4.1-4.8 0-7.8 0zm38.7 1.3c-1.6-7-8-8.8-12.9-6.6-3.8 1.7-5.5 5-5.6 9.1-.1 3.1.8 5.9 3.2 8 2.7 2.4 6 2.7 9.4 2.1 1.9-.4 3.6-1.3 4.9-2.7-.5-.7-1-1.4-1.5-2-2.8 2.4-5.9 3.2-9.3 1.6-2.2-1.1-3.3-3.8-3.5-5.8h15.5v-1.3c.1-.9 0-1.7-.2-2.4zM42.6 115c-.3-3 2.7-6.2 6-6.2 3.8-.1 6.2 2.2 6.3 6.2H42.6zm30.7-8.7c-1.5-.3-3.1-.4-4.6-.3-2.4.2-4.5 1.3-6.2 3.1.5.7.9 1.4 1.5 2.2.2-.2.4-.4.6-.5 1.6-1.5 3.5-2.3 5.8-2.1 1.8.1 3.5.7 4 2.5.4 1.4.3 2.9.4 4.4-.3 0-.4-.1-.5-.2-2.4-2-5.1-2.4-8-1.7-2.7.7-4.4 2.8-4.6 5.5-.2 3.1 1.2 5.4 3.9 6.5 1.7.7 3.6.7 5.4.3 1.4-.3 2-1.1 4-2.2v1.3h2.8c0-4 .1-8.9 0-13.5 0-2.9-1.7-4.7-4.5-5.3zm1.4 12.6c-.1.3 0 .6 0 .9 0 2.1-.5 2.8-2.5 3.6-1.4.5-2.9.7-4.4.2-1.7-.5-2.9-2-2.9-3.7-.1-1.7 1-3.4 2.7-3.9 2.3-.8 4.4-.3 6.3 1.1.6.5 1 1 .8 1.8zm15.6-9.9c2.6-.8 5-.3 6.8 1.9l.3.2c.7-.6 1.3-1.2 2.1-1.9-.3-.3-.4-.5-.6-.8-2.9-3.1-8.6-3.5-12.1-1-4.9 3.6-4.8 10.6-2.4 14.3 2.3 3.5 5.6 4.7 9.5 4.2 2.3-.3 4.2-1.4 5.7-3.3-.7-.6-1.4-1.2-2.1-1.9-.2.2-.3.3-.4.5-2.7 3-7.2 2.7-9.6-.5-1.4-1.9-1.7-4.1-1.3-6.3.2-2.5 1.5-4.5 4.1-5.4zm20.8 13.6c-.2.1-.3.2-.3.2-.8.6-1.6.7-2.5.4-.9-.4-1-1.2-1.1-2v-11.4c0-.2 0 .2.1-.8h3.8v-3h-4v-5h-3v5.4h-2.6c-.2 0-.5.2-.5.4-.1.7 0 1.2 0 2.2h3.2v12.8c0 1.6.4 3 1.8 3.8 1.5.9 4.4.7 5.7-.4.2-.1.3-.5.3-.6-.3-.6-.6-1.3-.9-2z"/></g></symbol>
 <symbol id="icon-figma" viewBox="0 0 128 128"><path fill="#0acf83" d="M45.5 129c11.9 0 21.5-9.6 21.5-21.5V86H45.5C33.6 86 24 95.6 24 107.5S33.6 129 45.5 129zm0 0"/><path fill="#a259ff" d="M24 64.5C24 52.6 33.6 43 45.5 43H67v43H45.5C33.6 86 24 76.4 24 64.5zm0 0"/><path fill="#f24e1e" d="M24 21.5C24 9.6 33.6 0 45.5 0H67v43H45.5C33.6 43 24 33.4 24 21.5zm0 0"/><path fill="#ff7262" d="M67 0h21.5C100.4 0 110 9.6 110 21.5S100.4 43 88.5 43H67zm0 0"/><path fill="#1abcfe" d="M110 64.5c0 11.9-9.6 21.5-21.5 21.5S67 76.4 67 64.5 76.6 43 88.5 43 110 52.6 110 64.5zm0 0"/></symbol>
<symbol id="icon-css" viewBox="0 0 128 128"><path fill="#131313" d="M89.234 5.856H81.85l7.679 8.333v3.967H73.713v-4.645h7.678l-7.678-8.333V1.207h15.521v4.649zm-18.657 0h-7.384l7.679 8.333v3.967H55.055v-4.645h7.679l-7.679-8.333V1.207h15.522v4.649zm-18.474.19h-7.968v7.271h7.968v4.839H38.471V1.207h13.632v4.839z"/><path fill="#1572B6" d="M27.613 116.706l-8.097-90.813h88.967l-8.104 90.798-36.434 10.102-36.332-10.087z"/><path fill="#33A9DC" d="M64.001 119.072l29.439-8.162 6.926-77.591H64.001v85.753z"/><path fill="#fff" d="M64 66.22h14.738l1.019-11.405H64V43.677h27.929l-.267 2.988-2.737 30.692H64V66.22z"/><path fill="#EBEBEB" d="M64.067 95.146l-.049.014-12.404-3.35-.794-8.883H39.641l1.561 17.488 22.814 6.333.052-.015V95.146z"/><path fill="#fff" d="M77.792 76.886L76.45 91.802l-12.422 3.353v11.588l22.833-6.328.168-1.882 1.938-21.647H77.792z"/><path fill="#EBEBEB" d="M64.039 43.677v11.137H37.136l-.224-2.503-.507-5.646-.267-2.988h27.901zM64 66.221v11.138H51.753l-.223-2.503-.508-5.647-.267-2.988H64z"/></symbol>
<symbol id="icon-firebase" viewBox="0 0 128 128"><path fill="#fff" d="M26.994 127.655h-2.032v-15.766h9.231v1.937h-7.199v5.176h6.495v1.892h-6.495zm11.022-13.497a1.442 1.442 0 0 1-1.818.182 1.432 1.432 0 0 1-.533-1.742 1.44 1.44 0 0 1 2.77.547 1.374 1.374 0 0 1-.42 1.013zm0 13.497h-2.033v-10.79h2.033zm4.46 0h-2.03v-10.79h1.942v1.762h.088a2.767 2.767 0 0 1 1.27-1.454 3.642 3.642 0 0 1 1.867-.573 3.884 3.884 0 0 1 1.524.266l-.773 1.892a3.082 3.082 0 0 0-1.082-.155 2.66 2.66 0 0 0-1.957.872c-.567.58-.85 1.34-.85 2.28zm10.226.344c-1.635 0-2.963-.543-3.986-1.63-1.023-1.085-1.535-2.458-1.536-4.118a5.93 5.93 0 0 1 1.494-4.042 4.838 4.838 0 0 1 3.81-1.696c1.605 0 2.89.521 3.855 1.563.965 1.043 1.447 2.438 1.446 4.184l-.022.375h-8.55c.058 1.086.423 1.946 1.094 2.58a3.32 3.32 0 0 0 2.352.947c1.457 0 2.444-.617 2.96-1.85l1.81.749a4.84 4.84 0 0 1-1.744 2.102c-.81.557-1.805.836-2.983.836zm2.916-7.053c-.044-.617-.327-1.204-.85-1.762-.524-.557-1.3-.83-2.33-.819a2.92 2.92 0 0 0-1.955.706 3.597 3.597 0 0 0-1.137 1.892zm9.52 7.053a4.61 4.61 0 0 1-2.22-.516 3.746 3.746 0 0 1-1.474-1.325h-.088v1.497h-1.938v-15.766h2.026v4.976l-.088 1.497h.088a3.746 3.746 0 0 1 1.468-1.321 4.612 4.612 0 0 1 2.22-.528c1.398 0 2.606.55 3.623 1.651 1.017 1.101 1.525 2.466 1.523 4.096 0 1.63-.508 2.995-1.523 4.096-1.016 1.101-2.222 1.649-3.617 1.643zm-.331-1.85a3.238 3.238 0 0 0 2.43-1.068c.677-.712 1.016-1.655 1.016-2.83 0-1.174-.34-2.117-1.017-2.83a3.32 3.32 0 0 0-2.432-1.067 3.32 3.32 0 0 0-2.437 1.057c-.67.705-1.006 1.651-1.005 2.84.001 1.19.336 2.137 1.005 2.84a3.242 3.242 0 0 0 2.44 1.067zM75.452 128c-1.15 0-2.111-.33-2.882-.99-.77-.662-1.157-1.535-1.16-2.62 0-1.175.457-2.096 1.37-2.764.914-.667 2.04-1 3.38-1 1.192 0 2.17.22 2.933.66v-.308a2.405 2.405 0 0 0-.818-1.905 2.939 2.939 0 0 0-2.005-.707 3.11 3.11 0 0 0-1.602.419 2.159 2.159 0 0 0-.983 1.145l-1.855-.793c.25-.645.744-1.244 1.48-1.794s1.709-.826 2.916-.826c1.381 0 2.531.402 3.452 1.204.92.803 1.377 1.94 1.37 3.413v6.522h-1.952v-1.497h-.088c-.81 1.227-1.995 1.84-3.556 1.84zm.331-1.85a3.314 3.314 0 0 0 2.286-.935 2.9 2.9 0 0 0 1.036-2.212c-.575-.47-1.438-.706-2.589-.706-.987 0-1.73.213-2.23.638a1.914 1.914 0 0 0-.751 1.497c-.01.511.253.989.69 1.256a2.736 2.736 0 0 0 1.558.471zM87.025 128c-1.208 0-2.205-.294-2.992-.88a5.213 5.213 0 0 1-1.726-2.203l1.812-.748c.575 1.35 1.553 2.026 2.934 2.026a2.688 2.688 0 0 0 1.553-.418 1.28 1.28 0 0 0 .607-1.1c0-.705-.493-1.182-1.48-1.432l-2.187-.528a5.208 5.208 0 0 1-1.965-1.001 2.405 2.405 0 0 1-.927-1.992c0-.954.424-1.729 1.27-2.323a5.112 5.112 0 0 1 3.015-.89 5.039 5.039 0 0 1 2.56.651 3.667 3.667 0 0 1 1.612 1.862l-1.767.719c-.398-.954-1.223-1.432-2.474-1.432a2.893 2.893 0 0 0-1.524.375 1.14 1.14 0 0 0-.618 1.014c0 .617.479 1.035 1.436 1.255l2.143.508c1.016.23 1.767.63 2.254 1.204a2.92 2.92 0 0 1 .735 1.95 2.999 2.999 0 0 1-1.208 2.423c-.79.64-1.811.96-3.063.96zm10.933 0c-1.634 0-2.963-.543-3.986-1.63-1.023-1.085-1.534-2.458-1.536-4.118a5.931 5.931 0 0 1 1.491-4.05 4.838 4.838 0 0 1 3.81-1.697c1.605 0 2.89.521 3.855 1.564.965 1.042 1.447 2.437 1.446 4.184l-.022.375h-8.547c.059 1.086.424 1.946 1.094 2.58a3.32 3.32 0 0 0 2.352.946c1.458 0 2.444-.616 2.96-1.85l1.81.754a4.84 4.84 0 0 1-1.745 2.102c-.81.56-1.804.84-2.982.84zm2.916-7.053c-.043-.617-.327-1.204-.85-1.762-.524-.557-1.3-.83-2.33-.819a2.92 2.92 0 0 0-1.955.706 3.597 3.597 0 0 0-1.137 1.892z"/><path fill="#ffa000" d="M30.916 72.85 42.029 1.736a2.053 2.053 0 0 1 3.838-.652L57.36 22.521l4.581-8.723a2.053 2.053 0 0 1 3.633 0L96.592 72.85Z"/><path fill="#f57c00" d="M69.31 45.148 57.356 22.51l-26.44 50.34Z"/><path fill="#ffca28" d="m96.592 72.85-8.513-52.674a2.055 2.055 0 0 0-1.399-1.613 2.05 2.05 0 0 0-2.074.504L30.916 72.85l29.708 16.66a6.157 6.157 0 0 0 6.003 0z"/><path fill="#fff" fill-opacity=".2" d="M88.08 20.176a2.055 2.055 0 0 0-1.4-1.612 2.05 2.05 0 0 0-2.074.503L73.949 29.75l-8.38-15.953a2.053 2.053 0 0 0-3.632 0l-4.581 8.722L45.862 1.083A2.053 2.053 0 0 0 43.706.03a2.05 2.05 0 0 0-1.682 1.71L30.916 72.85h-.036l.035.042.293.144L84.59 19.59a2.053 2.053 0 0 1 3.479 1.108L96.51 72.9l.082-.051-8.512-52.675ZM31.012 72.753l11.016-70.51A2.053 2.053 0 0 1 43.71.532a2.054 2.054 0 0 1 2.157 1.054L57.36 23.024l4.582-8.723a2.053 2.053 0 0 1 3.633 0l8.21 15.614z"/><path fill="#a52714" d="M66.627 89.007a6.157 6.157 0 0 1-6.003 0L30.986 72.395l-.072.456 29.709 16.655a6.157 6.157 0 0 0 6.003 0l29.966-16.655-.078-.472-29.888 16.63Z" opacity=".2"/></symbol>
<symbol id="icon-github" viewBox="0 0 128 128"><g fill="#181616"><path fill-rule="evenodd" clip-rule="evenodd" d="M64 1.512c-23.493 0-42.545 19.047-42.545 42.545 0 18.797 12.19 34.745 29.095 40.37 2.126.394 2.907-.923 2.907-2.047 0-1.014-.04-4.366-.058-7.92-11.837 2.573-14.334-5.02-14.334-5.02-1.935-4.918-4.724-6.226-4.724-6.226-3.86-2.64.29-2.586.29-2.586 4.273.3 6.523 4.385 6.523 4.385 3.794 6.504 9.953 4.623 12.38 3.536.383-2.75 1.485-4.628 2.702-5.69-9.45-1.075-19.384-4.724-19.384-21.026 0-4.645 1.662-8.44 4.384-11.42-.442-1.072-1.898-5.4.412-11.26 0 0 3.572-1.142 11.7 4.363 3.395-.943 7.035-1.416 10.65-1.432 3.616.017 7.258.49 10.658 1.432 8.12-5.504 11.688-4.362 11.688-4.362 2.316 5.86.86 10.187.418 11.26 2.728 2.978 4.378 6.774 4.378 11.42 0 16.34-9.953 19.938-19.427 20.99 1.526 1.32 2.886 3.91 2.886 7.88 0 5.692-.048 10.273-.048 11.674 0 1.13.766 2.458 2.922 2.04 16.896-5.632 29.07-21.574 29.07-40.365C106.545 20.56 87.497 1.512 64 1.512z"/><path d="M37.57 62.596c-.095.212-.428.275-.73.13-.31-.14-.482-.427-.382-.64.09-.216.424-.277.733-.132.31.14.486.43.38.642zM39.293 64.52c-.203.187-.6.1-.87-.198-.278-.297-.33-.694-.124-.884.208-.188.593-.1.87.197.28.3.335.693.123.884zm1.677 2.448c-.26.182-.687.012-.95-.367-.262-.377-.262-.83.005-1.013.264-.182.684-.018.95.357.262.385.262.84-.005 1.024zm2.298 2.368c-.233.257-.73.188-1.093-.163-.372-.343-.475-.83-.242-1.087.237-.257.736-.185 1.102.163.37.342.482.83.233 1.086zm3.172 1.374c-.104.334-.582.485-1.064.344-.482-.146-.796-.536-.7-.872.1-.336.582-.493 1.067-.342.48.144.795.53.696.87zm3.48.255c.013.35-.396.642-.902.648-.508.012-.92-.272-.926-.618 0-.354.4-.642.908-.65.506-.01.92.272.92.62zm3.24-.551c.06.342-.29.694-.793.787-.494.092-.95-.12-1.014-.46-.06-.35.297-.7.79-.792.503-.088.953.118 1.017.466zm0 0"/></g><path d="M24.855 108.302h-10.7a.5.5 0 00-.5.5v5.232a.5.5 0 00.5.5h4.173v6.5s-.937.32-3.53.32c-3.056 0-7.327-1.116-7.327-10.508 0-9.393 4.448-10.63 8.624-10.63 3.614 0 5.17.636 6.162.943.31.094.6-.216.6-.492l1.193-5.055a.468.468 0 00-.192-.39c-.403-.288-2.857-1.66-9.058-1.66-7.144 0-14.472 3.038-14.472 17.65 0 14.61 8.39 16.787 15.46 16.787 5.854 0 9.405-2.502 9.405-2.502.146-.08.162-.285.162-.38v-16.316a.5.5 0 00-.5-.5zM79.506 94.81H73.48a.5.5 0 00-.498.503l.002 11.644h-9.392V95.313a.5.5 0 00-.497-.503H57.07a.5.5 0 00-.498.503v31.53c0 .277.224.503.498.503h6.025a.5.5 0 00.497-.504v-13.486h9.392l-.016 13.486c0 .278.224.504.5.504h6.038a.5.5 0 00.497-.504v-31.53a.497.497 0 00-.497-.502zm-47.166.717c-2.144 0-3.884 1.753-3.884 3.923 0 2.167 1.74 3.925 3.884 3.925 2.146 0 3.885-1.758 3.885-3.925 0-2.17-1.74-3.923-3.885-3.923zm2.956 9.608H29.29c-.276 0-.522.284-.522.56v20.852c0 .613.382.795.876.795h5.41c.595 0 .74-.292.74-.805v-20.899a.5.5 0 00-.498-.502zm67.606.047h-5.98a.5.5 0 00-.496.504v15.46s-1.52 1.11-3.675 1.11-2.727-.977-2.727-3.088v-13.482a.5.5 0 00-.497-.504h-6.068a.502.502 0 00-.498.504v14.502c0 6.27 3.495 7.804 8.302 7.804 3.944 0 7.124-2.18 7.124-2.18s.15 1.15.22 1.285c.07.136.247.273.44.273l3.86-.017a.502.502 0 00.5-.504l-.003-21.166a.504.504 0 00-.5-.502zm16.342-.708c-3.396 0-5.706 1.515-5.706 1.515V95.312a.5.5 0 00-.497-.503H107a.5.5 0 00-.5.503v31.53a.5.5 0 00.5.503h4.192c.19 0 .332-.097.437-.268.103-.17.254-1.454.254-1.454s2.47 2.34 7.148 2.34c5.49 0 8.64-2.784 8.64-12.502s-5.03-10.988-8.428-10.988zm-2.36 17.764c-2.073-.063-3.48-1.004-3.48-1.004v-9.985s1.388-.85 3.09-1.004c2.153-.193 4.228.458 4.228 5.594 0 5.417-.935 6.486-3.837 6.398zm-63.689-.118c-.263 0-.937.107-1.63.107-2.22 0-2.973-1.032-2.973-2.368v-8.866h4.52a.5.5 0 00.5-.504v-4.856a.5.5 0 00-.5-.502h-4.52l-.007-5.97c0-.227-.116-.34-.378-.34h-6.16c-.238 0-.367.106-.367.335v6.17s-3.087.745-3.295.805a.5.5 0 00-.36.48v3.877a.5.5 0 00.497.503h3.158v9.328c0 6.93 4.86 7.61 8.14 7.61 1.497 0 3.29-.48 3.586-.59.18-.067.283-.252.283-.453l.004-4.265a.51.51 0 00-.5-.502z" fill="#100E0F"/></symbol>
<symbol id="icon-html" viewBox="0 0 128 128"><path fill="#E44D26" d="M27.854 116.354l-8.043-90.211h88.378l-8.051 90.197-36.192 10.033z"/><path fill="#F16529" d="M64 118.704l29.244-8.108 6.881-77.076H64z"/><path fill="#EBEBEB" d="M64 66.978H49.359l-1.01-11.331H64V44.583H36.257l.264 2.969 2.72 30.489H64zm0 28.733l-.049.013-12.321-3.328-.788-8.823H39.735l1.55 17.372 22.664 6.292.051-.015z"/><path d="M28.034 1.627h5.622v5.556H38.8V1.627h5.623v16.822H38.8v-5.633h-5.143v5.633h-5.623V1.627zm23.782 5.579h-4.95V1.627h15.525v5.579h-4.952v11.243h-5.623V7.206zm13.039-5.579h5.862l3.607 5.911 3.603-5.911h5.865v16.822h-5.601v-8.338l-3.867 5.981h-.098l-3.87-5.981v8.338h-5.502V1.627zm21.736 0h5.624v11.262h7.907v5.561H86.591V1.627z"/><path fill="#fff" d="M63.962 66.978v11.063h13.624L76.302 92.39l-12.34 3.331v11.51l22.682-6.286.166-1.87 2.6-29.127.27-2.97h-2.982zm0-22.395v11.064h26.725l.221-2.487.505-5.608.265-2.969z"/></symbol>
<symbol id="icon-js" viewBox="0 0 128 128"><path fill="#F0DB4F" d="M1.408 1.408h125.184v125.185H1.408z"/><path fill="#323330" d="M116.347 96.736c-.917-5.711-4.641-10.508-15.672-14.981-3.832-1.761-8.104-3.022-9.377-5.926-.452-1.69-.512-2.642-.226-3.665.821-3.32 4.784-4.355 7.925-3.403 2.023.678 3.938 2.237 5.093 4.724 5.402-3.498 5.391-3.475 9.163-5.879-1.381-2.141-2.118-3.129-3.022-4.045-3.249-3.629-7.676-5.498-14.756-5.355l-3.688.477c-3.534.893-6.902 2.748-8.877 5.235-5.926 6.724-4.236 18.492 2.975 23.335 7.104 5.332 17.54 6.545 18.873 11.531 1.297 6.104-4.486 8.08-10.234 7.378-4.236-.881-6.592-3.034-9.139-6.949-4.688 2.713-4.688 2.713-9.508 5.485 1.143 2.499 2.344 3.63 4.26 5.795 9.068 9.198 31.76 8.746 35.83-5.176.165-.478 1.261-3.666.38-8.581zM69.462 58.943H57.753l-.048 30.272c0 6.438.333 12.34-.714 14.149-1.713 3.558-6.152 3.117-8.175 2.427-2.059-1.012-3.106-2.451-4.319-4.485-.333-.584-.583-1.036-.667-1.071l-9.52 5.83c1.583 3.249 3.915 6.069 6.902 7.901 4.462 2.678 10.459 3.499 16.731 2.059 4.082-1.189 7.604-3.652 9.448-7.401 2.666-4.915 2.094-10.864 2.07-17.444.06-10.735.001-21.468.001-32.237z"/></symbol>
<symbol id="icon-npm"   viewBox="0 0 128 128"><path fill="#cb3837" d="M2 38.5h124v43.71H64v7.29H36.44v-7.29H2zm6.89 36.43h13.78V53.07h6.89v21.86h6.89V45.79H8.89zm34.44-29.14v36.42h13.78v-7.28h13.78V45.79zm13.78 7.29H64v14.56h-6.89zm20.67-7.29v29.14h13.78V53.07h6.89v21.86h6.89V53.07h6.89v21.86h6.89V45.79z"/></symbol>
<symbol id="icon-redux"  viewBox="0 0 128 128"><path fill="#764abc" d="M88.69 88.11c-9 18.4-24.76 30.78-45.61 34.85a39.73 39.73 0 0 1-9.77 1.14c-12 0-23-5-28.34-13.19C-2.2 100-4.64 76.87 19 59.76c.48 2.61 1.46 6.19 2.11 8.31A38.24 38.24 0 0 0 10 81.1c-4.4 8.64-3.91 17.27 1.3 25.25 3.6 5.38 9.3 8.65 16.63 9.65a44 44 0 0 0 26.55-5c12.71-6.68 21.18-14.66 26.72-25.57a9.32 9.32 0 0 1-2.61-6A9.12 9.12 0 0 1 87.37 70h.34a9.15 9.15 0 0 1 1 18.25zm28.67-20.2c12.21 13.84 12.54 30.13 7.82 39.58-4.4 8.63-16 17.27-31.6 17.27a50.48 50.48 0 0 1-21-5.05c2.29-1.63 5.54-4.24 7.33-5.87a41.54 41.54 0 0 0 16 3.42c10.1 0 17.75-4.72 22.31-13.35 2.93-5.7 3.1-12.38.33-19.22a43.61 43.61 0 0 0-17.27-20.85 62 62 0 0 0-34.74-10.59h-2.93a9.21 9.21 0 0 1-8 5.54h-.31a9.13 9.13 0 0 1-.3-18.25h.33a9 9 0 0 1 8 4.89h2.61c20.8 0 39.06 7.98 51.42 22.48zm-82.75 23a7.31 7.31 0 0 1 1.14-4.73c-9.12-15.8-14-35.83-6.51-56.68C34.61 13.83 48.13 3.24 62.79 3.24c15.64 0 31.93 13.69 33.88 40.07-2.44-.81-6-2-8.14-2.44-.53-8.63-7.82-30.13-25.09-29.81-6.19.17-15.31 3.1-20 9.12a43.69 43.69 0 0 0-9.64 25.25 59.61 59.61 0 0 0 8.47 36.16 2.75 2.75 0 0 1 1.14-.16h.32a9.121 9.121 0 0 1 .33 18.24h-.33a9.16 9.16 0 0 1-9.12-8.79z"/></symbol>
<symbol id="icon-postman" viewBox="0 0 128 128" >
    <path fill="#f37036" d="M62.988 1.943c-12.929.2-25.904 4.428-36.925 12.94-27.125 20.953-32.13 59.93-11.176 87.055 20.957 27.123 59.937 32.124 87.058 11.167 27.114-20.952 32.118-59.918 11.172-87.039C100.68 9.96 81.884 1.65 62.988 1.943zm28.875 23.139a9.27 9.27 0 0 1 5.586 1.914l-8.068 8.117a.84.84 0 0 0-.076.098.83.83 0 0 0-.239.55.832.832 0 0 0 .313.65h.002l6.1 6.1a9.044 9.044 0 0 1-10.028-1.913c-2.586-2.6-3.336-6.504-1.953-9.891 1.383-3.39 4.68-5.605 8.363-5.625zm7.12 3.432a8.87 8.87 0 0 1 2.033 5.674 9.15 9.15 0 0 1-2.688 6.464 9.989 9.989 0 0 1-1.098.895L92.307 36.7l-.963-.963.265-.265 7.373-6.96zm-.366 4.193a.777.777 0 0 0-.55.031.731.731 0 0 0-.36.426.73.73 0 0 0 .05.559 2.226 2.226 0 0 1-.257 2.328.64.64 0 0 0-.195.488c.004.184.07.36.195.492a.58.58 0 0 0 .414 0 .68.68 0 0 0 .672-.207 3.573 3.573 0 0 0 .465-3.777v.004a.777.777 0 0 0-.434-.344zM79.34 39.43a5.584 5.584 0 0 1 3.31 1.226 4.756 4.756 0 0 0-2.681 1.34L57.162 64.701l-4.476-4.476c11.828-11.772 19.06-17.921 23.556-19.936a5.584 5.584 0 0 1 3.098-.86zm3.965 2.96a2.895 2.895 0 0 1 2.043.844 2.786 2.786 0 0 1 .879 2.121 2.869 2.869 0 0 1-.985 2.07l-24.25 21.106-2.617-2.617 22.887-22.68a2.895 2.895 0 0 1 2.043-.843zm2.994 6.698c-1.69 6.702-10.647 15.783-19.987 24.607l-3.777-3.773L86.3 49.088zM51.367 61.547l.274.27 3.513 3.513-9.63 2.06 5.843-5.843zm5.793 5.84.004.004 1.168 1.195a1.086 1.086 0 0 0 .018.084l.078.012.248.254.82.84-5.385.66 3.05-3.05zm3.867 4.076 3.578 3.576A126.992 126.992 0 0 1 38.75 91.695a1.44 1.44 0 0 0-.777 1.653l1.035 4.5a.31.31 0 0 1 0 .363.31.31 0 0 1-.414 0l-6.102-6.152L51.3 72.975l9.728-1.512zm-29.933 21.94.869.814 4.492 4.492-10.016-.648 4.655-4.659z"/>
</symbol>
<symbol  id="icon-ts"  viewBox="0 0 128 128"><path fill="#fff" d="M22.67 47h99.67v73.67H22.67z"/><path data-name="original" fill="#007acc" d="M1.5 63.91v62.5h125v-125H1.5zm100.73-5a15.56 15.56 0 017.82 4.5 20.58 20.58 0 013 4c0 .16-5.4 3.81-8.69 5.85-.12.08-.6-.44-1.13-1.23a7.09 7.09 0 00-5.87-3.53c-3.79-.26-6.23 1.73-6.21 5a4.58 4.58 0 00.54 2.34c.83 1.73 2.38 2.76 7.24 4.86 8.95 3.85 12.78 6.39 15.16 10 2.66 4 3.25 10.46 1.45 15.24-2 5.2-6.9 8.73-13.83 9.9a38.32 38.32 0 01-9.52-.1 23 23 0 01-12.72-6.63c-1.15-1.27-3.39-4.58-3.25-4.82a9.34 9.34 0 011.15-.73L82 101l3.59-2.08.75 1.11a16.78 16.78 0 004.74 4.54c4 2.1 9.46 1.81 12.16-.62a5.43 5.43 0 00.69-6.92c-1-1.39-3-2.56-8.59-5-6.45-2.78-9.23-4.5-11.77-7.24a16.48 16.48 0 01-3.43-6.25 25 25 0 01-.22-8c1.33-6.23 6-10.58 12.82-11.87a31.66 31.66 0 019.49.26zm-29.34 5.24v5.12H56.66v46.23H45.15V69.26H28.88v-5a49.19 49.19 0 01.12-5.17C29.08 59 39 59 51 59h21.83z"/></symbol>
<symbol id="icon-vite"  viewBox="0 0 128 128"><defs><linearGradient id="a" x1="6" x2="235" y1="33" y2="344" gradientTransform="translate(0 .937) scale(.3122)" gradientUnits="userSpaceOnUse"><stop offset="0" stop-color="#41d1ff"/><stop offset="1" stop-color="#bd34fe"/></linearGradient><linearGradient id="b" x1="194.651" x2="236.076" y1="8.818" y2="292.989" gradientTransform="translate(0 .937) scale(.3122)" gradientUnits="userSpaceOnUse"><stop offset="0" stop-color="#ffea83"/><stop offset=".083" stop-color="#ffdd35"/><stop offset="1" stop-color="#ffa800"/></linearGradient></defs><path fill="url(#a)" d="M124.766 19.52 67.324 122.238c-1.187 2.121-4.234 2.133-5.437.024L3.305 19.532c-1.313-2.302.652-5.087 3.261-4.622L64.07 25.187a3.09 3.09 0 0 0 1.11 0l56.3-10.261c2.598-.473 4.575 2.289 3.286 4.594Zm0 0"/><path fill="url(#b)" d="M91.46 1.43 48.954 9.758a1.56 1.56 0 0 0-1.258 1.437l-2.617 44.168a1.563 1.563 0 0 0 1.91 1.614l11.836-2.735a1.562 1.562 0 0 1 1.88 1.836l-3.517 17.219a1.562 1.562 0 0 0 1.985 1.805l7.308-2.223c1.133-.344 2.223.652 1.985 1.812l-5.59 27.047c-.348 1.692 1.902 2.614 2.84 1.164l.625-.968 34.64-69.13c.582-1.16-.421-2.48-1.69-2.234l-12.185 2.352a1.558 1.558 0 0 1-1.793-1.965l7.95-27.562A1.56 1.56 0 0 0 91.46 1.43Zm0 0"/></symbol>
<symbol  id="icon-tailwind" viewBox="0 0 128 128"><path d="M64.004 25.602c-17.067 0-27.73 8.53-32 25.597 6.398-8.531 13.867-11.73 22.398-9.597 4.871 1.214 8.352 4.746 12.207 8.66C72.883 56.629 80.145 64 96.004 64c17.066 0 27.73-8.531 32-25.602-6.399 8.536-13.867 11.735-22.399 9.602-4.87-1.215-8.347-4.746-12.207-8.66-6.27-6.367-13.53-13.738-29.394-13.738zM32.004 64c-17.066 0-27.73 8.531-32 25.602C6.402 81.066 13.87 77.867 22.402 80c4.871 1.215 8.352 4.746 12.207 8.66 6.274 6.367 13.536 13.738 29.395 13.738 17.066 0 27.73-8.53 32-25.597-6.399 8.531-13.867 11.73-22.399 9.597-4.87-1.214-8.347-4.746-12.207-8.66C55.128 71.371 47.868 64 32.004 64zm0 0" fill="#38bdf8"/></symbol>
  <symbol id="icon-vercel" viewBox="0 0 128 128"><path d="M64.002 8.576 128 119.424H0Zm0 0"/></symbol>
<symbol id="icon-vscode"  viewBox="0 0 128 128"><mask id="a" width="108" height="108" x="10" y="0" maskUnits="userSpaceOnUse" style="mask-type:alpha"><path fill="#fff" fill-rule="evenodd" d="M86.585 107.263c1.7.662 3.64.62 5.357-.206l22.236-10.7A6.75 6.75 0 0 0 118 90.274V17.726a6.751 6.751 0 0 0-3.822-6.083L91.942.943a6.724 6.724 0 0 0-7.671 1.307L41.703 41.085 23.163 27.01a4.495 4.495 0 0 0-5.744.256l-5.947 5.41a4.502 4.502 0 0 0-.005 6.654L27.547 54l-16.08 14.67a4.502 4.502 0 0 0 .005 6.655l5.947 5.41a4.495 4.495 0 0 0 5.743.255l18.541-14.075L84.27 105.75a6.724 6.724 0 0 0 2.315 1.513Zm4.431-77.78L58.718 54l32.298 24.517V29.483Z" clip-rule="evenodd"/></mask><path fill="#0877b9" fill-rule="evenodd" d="M35.206 124.462c-.35 0-.657.028-.916.087-.262.058-.479.15-.65.266-.159.106-.29.25-.379.421a1.287 1.287 0 0 0-.12.565c0 .363.117.655.346.87.235.214.558.32.974.32.33.003.654-.085.938-.253.29-.175.59-.437.91-.79v-1.486zm35.719-3.069c-.329 0-.608.08-.837.238a1.796 1.796 0 0 0-.557.616 2.992 2.992 0 0 0-.313.864 5.08 5.08 0 0 0-.096.984c0 .35.025.695.084 1.037.053.337.149.636.283.898.133.264.316.476.537.633.224.158.503.238.845.238.17 0 .333-.026.49-.07.175-.054.342-.132.492-.234a3.7 3.7 0 0 0 .522-.425c.206-.202.4-.418.578-.646v-2.805c-.35-.432-.688-.762-1.013-.987a1.756 1.756 0 0 0-1.015-.34Zm12.989-.03c-.384 0-.712.068-.987.205a1.805 1.805 0 0 0-.682.57 2.714 2.714 0 0 0-.397.878c-.09.363-.132.736-.127 1.109 0 .387.031.745.103 1.082.07.34.192.637.354.886.166.254.387.454.666.6.279.148.624.224 1.041.224.374 0 .703-.07.982-.204.28-.137.504-.325.683-.57.179-.24.313-.533.395-.874a4.647 4.647 0 0 0 .125-1.115c0-.38-.032-.738-.107-1.075a2.697 2.697 0 0 0-.35-.89 1.776 1.776 0 0 0-.659-.604c-.277-.146-.623-.222-1.04-.222zm-6.39-.965c.128 0 .237.004.32.013a.83.83 0 0 1 .195.05c.04.016.075.041.1.074a.182.182 0 0 1 .03.105v7.019a.172.172 0 0 1-.03.103.246.246 0 0 1-.1.075.877.877 0 0 1-.195.046c-.21.02-.422.02-.633 0a.91.91 0 0 1-.199-.045.202.202 0 0 1-.1-.075.205.205 0 0 1-.03-.104v-7.02a.234.234 0 0 1 .03-.104c.016-.028.05-.053.1-.074a.857.857 0 0 1 .2-.05c.083-.01.187-.013.312-.013zm-16.668 0c.124 0 .228.004.31.013a.497.497 0 0 1 .2.046.27.27 0 0 1 .107.074.192.192 0 0 1 .032.109v4.084c0 .412.028.74.087.987a1.918 1.918 0 0 0 .274.632c.12.174.275.309.462.405.188.094.409.145.658.145.32 0 .641-.112.962-.342.32-.229.658-.565 1.02-1.008v-4.904a.23.23 0 0 1 .025-.107.239.239 0 0 1 .104-.074.538.538 0 0 1 .2-.048c.078-.007.187-.011.316-.011.125 0 .23.003.312.012a.464.464 0 0 1 .196.045c.04.017.075.043.104.075a.16.16 0 0 1 .033.109v7.019a.202.202 0 0 1-.025.103.206.206 0 0 1-.096.075.894.894 0 0 1-.18.045c-.192.022-.382.022-.572 0a.659.659 0 0 1-.18-.044.192.192 0 0 1-.092-.075.2.2 0 0 1-.02-.104v-.93c-.404.443-.8.762-1.186.967a2.547 2.547 0 0 1-1.186.304c-.467 0-.864-.08-1.183-.233a2.043 2.043 0 0 1-.775-.637 2.473 2.473 0 0 1-.424-.938 5.503 5.503 0 0 1-.128-1.294v-4.258c0-.043.007-.08.027-.11a.215.215 0 0 1 .105-.074.536.536 0 0 1 .203-.047c.084-.007.184-.01.31-.01zm-35.933 0c.126 0 .23.004.313.013a.497.497 0 0 1 .2.046c.04.017.074.042.103.074.021.032.032.07.03.109v4.084c0 .412.029.74.092.987.057.249.149.458.27.632.125.174.28.309.466.405.188.094.405.145.653.145.325 0 .646-.112.967-.342.316-.229.658-.565 1.016-1.008v-4.904c0-.04.008-.078.028-.107a.215.215 0 0 1 .105-.074.497.497 0 0 1 .2-.048c.105-.01.21-.013.316-.011.121 0 .224.003.309.012a.475.475 0 0 1 .195.045.378.378 0 0 1 .108.075.192.192 0 0 1 .032.109v7.019a.172.172 0 0 1-.028.103.206.206 0 0 1-.096.075.77.77 0 0 1-.181.045 2.43 2.43 0 0 1-.572 0 .748.748 0 0 1-.18-.044c-.045-.022-.074-.047-.085-.075a.202.202 0 0 1-.027-.104v-.93c-.398.443-.795.762-1.186.967-.362.197-.77.301-1.183.304-.469 0-.861-.08-1.183-.233a2.089 2.089 0 0 1-.778-.637 2.608 2.608 0 0 1-.424-.938 5.726 5.726 0 0 1-.128-1.294v-4.258c0-.043.008-.08.028-.11a.239.239 0 0 1 .104-.074.537.537 0 0 1 .204-.047c.083-.007.187-.01.313-.01v-.001zm-9.95 0a3.2 3.2 0 0 1 .321.013.794.794 0 0 1 .192.05.233.233 0 0 1 .103.074c.022.033.03.067.03.105v7.019a.173.173 0 0 1-.03.103.233.233 0 0 1-.103.075.847.847 0 0 1-.192.046c-.21.02-.422.02-.632 0a.92.92 0 0 1-.2-.045.202.202 0 0 1-.1-.075.17.17 0 0 1-.03-.104v-7.02c0-.037.01-.073.03-.104.017-.028.05-.053.1-.074a.857.857 0 0 1 .2-.05c.082-.01.188-.013.312-.013zm68.99-.112c.58 0 1.083.086 1.512.258.413.159.78.416 1.07.75.288.327.499.724.645 1.194.142.467.213.995.213 1.582 0 .57-.075 1.098-.226 1.578a3.457 3.457 0 0 1-.673 1.245 3.059 3.059 0 0 1-1.125.816c-.45.195-.97.29-1.561.29-.579 0-1.082-.087-1.511-.257a2.707 2.707 0 0 1-1.07-.75 3.155 3.155 0 0 1-.642-1.19 5.526 5.526 0 0 1-.212-1.59c0-.575.075-1.099.225-1.582a3.368 3.368 0 0 1 .671-1.24 2.98 2.98 0 0 1 1.12-.813c.445-.195.97-.291 1.566-.291zm-49.145 0c.505 0 .934.059 1.287.175.355.112.641.279.858.504.216.22.375.49.474.82.1.328.15.711.15 1.148v4.733c0 .064-.02.109-.062.139a.433.433 0 0 1-.17.07c-.107.02-.213.028-.322.025a1.65 1.65 0 0 1-.324-.025.387.387 0 0 1-.175-.07c-.037-.03-.053-.075-.053-.139v-.703a3.471 3.471 0 0 1-1.03.767 2.739 2.739 0 0 1-1.193.27c-.371 0-.703-.046-1.004-.146a2.15 2.15 0 0 1-.762-.416 1.804 1.804 0 0 1-.49-.671 2.227 2.227 0 0 1-.176-.903c0-.394.079-.74.242-1.028.164-.298.402-.548.69-.728a3.416 3.416 0 0 1 1.109-.433 6.906 6.906 0 0 1 1.473-.142h.97v-.545c0-.271-.03-.513-.088-.72a1.259 1.259 0 0 0-.275-.517 1.23 1.23 0 0 0-.495-.312 2.291 2.291 0 0 0-.75-.109c-.315 0-.603.043-.852.118-.228.065-.451.149-.666.25-.188.086-.347.17-.476.244-.124.08-.22.117-.282.117a.189.189 0 0 1-.109-.034.254.254 0 0 1-.083-.091.416.416 0 0 1-.05-.162 1.125 1.125 0 0 1-.017-.214c0-.127.008-.232.03-.306a.479.479 0 0 1 .128-.217c.071-.067.191-.146.362-.237.176-.092.37-.175.597-.25a5.53 5.53 0 0 1 .73-.187c.266-.05.535-.075.804-.075zm-14.99 0c.187 0 .375.016.561.05.188.029.354.07.509.116a1.988 1.988 0 0 1 .624.295c.043.03.082.067.113.11a.426.426 0 0 1 .037.108c.01.037.017.083.025.14.01.148.01.296 0 .443a.487.487 0 0 1-.042.158c-.016.041-.037.074-.067.091a.156.156 0 0 1-.083.03c-.05 0-.116-.03-.202-.088a2.46 2.46 0 0 0-.341-.184 3.908 3.908 0 0 0-.497-.183 2.256 2.256 0 0 0-.653-.086 2.019 2.019 0 0 0-.576.074 1.119 1.119 0 0 0-.411.214.874.874 0 0 0-.242.318 1.017 1.017 0 0 0-.079.408c0 .2.05.371.155.509.103.141.24.262.407.365.163.1.354.196.566.28l.654.258c.22.087.437.187.653.296.217.108.409.242.576.394.166.16.298.346.398.563.1.22.155.48.155.783 0 .358-.067.679-.2.957a1.995 1.995 0 0 1-.566.712 2.525 2.525 0 0 1-.874.433 3.911 3.911 0 0 1-1.116.15c-.245 0-.487-.021-.712-.059a3.72 3.72 0 0 1-.607-.149 2.85 2.85 0 0 1-.459-.187 1.186 1.186 0 0 1-.27-.175.424.424 0 0 1-.126-.217 1.92 1.92 0 0 1-.025-.633.874.874 0 0 1 .043-.163.192.192 0 0 1 .062-.09.201.201 0 0 1 .099-.026c.059 0 .142.033.256.105.11.07.248.145.411.229.162.083.357.162.582.233.222.066.48.103.77.103.217 0 .416-.024.592-.07.165-.04.322-.11.461-.209a.906.906 0 0 0 .3-.345 1.11 1.11 0 0 0 .104-.5.826.826 0 0 0-.149-.499 1.54 1.54 0 0 0-.405-.358 3.547 3.547 0 0 0-.56-.279 65.496 65.496 0 0 1-.642-.25 7.673 7.673 0 0 1-.65-.304 2.39 2.39 0 0 1-.562-.407 1.89 1.89 0 0 1-.404-.576 1.962 1.962 0 0 1-.149-.802 1.886 1.886 0 0 1 .637-1.457c.214-.188.48-.341.8-.454a3.274 3.274 0 0 1 1.119-.175zm36.04-1.77c.128 0 .236.01.32.017a.806.806 0 0 1 .196.05c.04.018.074.047.1.083a.168.168 0 0 1 .032.1v1.67h1.8a.207.207 0 0 1 .112.03.217.217 0 0 1 .079.09.43.43 0 0 1 .05.167c.013.07.016.154.016.25 0 .187-.025.324-.07.408-.046.083-.11.124-.187.124h-1.8v3.914c0 .484.071.85.214 1.094.145.246.399.371.77.371.117 0 .223-.013.32-.033a3.975 3.975 0 0 0 .246-.075 1.545 1.545 0 0 0 .186-.074.343.343 0 0 1 .142-.034c.025 0 .05.005.074.017a.129.129 0 0 1 .055.074 1.212 1.212 0 0 1 .05.383c0 .15-.008.27-.03.358a.41.41 0 0 1-.095.196.626.626 0 0 1-.188.117 1.641 1.641 0 0 1-.282.091 7.373 7.373 0 0 1-.341.059 3.35 3.35 0 0 1-.358.02 2.77 2.77 0 0 1-.938-.14 1.513 1.513 0 0 1-.636-.438 1.788 1.788 0 0 1-.363-.742 4.387 4.387 0 0 1-.113-1.057v-4.1h-.98c-.08 0-.143-.042-.189-.125-.05-.084-.07-.221-.07-.409 0-.095.004-.179.017-.249a.957.957 0 0 1 .053-.166.194.194 0 0 1 .08-.092.207.207 0 0 1 .112-.03h.979v-1.669c0-.037.007-.071.024-.099a.245.245 0 0 1 .104-.085.778.778 0 0 1 .197-.05c.103-.01.207-.016.312-.016zm-51.06-.803c.145 0 .258.004.346.013a.847.847 0 0 1 .199.04.262.262 0 0 1 .104.084.637.637 0 0 1 .066.13l2.894 8.493h.009l2.813-8.477a.731.731 0 0 1 .053-.142.213.213 0 0 1 .11-.086.972.972 0 0 1 .22-.043c.253-.02.507-.016.758.009.092.013.154.037.187.075.038.038.05.088.043.158-.015.096-.04.19-.075.28l-3.289 9.37a.375.375 0 0 1-.087.142.375.375 0 0 1-.155.087 1.1 1.1 0 0 1-.25.042 4.896 4.896 0 0 1-.374.012c-.118 0-.217-.004-.304-.004a1.699 1.699 0 0 1-.378-.053.283.283 0 0 1-.114-.054.206.206 0 0 1-.075-.072.37.37 0 0 1-.05-.107l-3.3-9.372a1.044 1.044 0 0 1-.067-.279c0-.07.022-.12.066-.158a.485.485 0 0 1 .23-.071c.1-.01.241-.016.42-.016zm45.472-.1c.446.002.889.075 1.311.216.2.063.38.138.538.217.155.08.258.146.31.196a.58.58 0 0 1 .095.116c.018.034.031.07.036.109a.838.838 0 0 1 .025.162c.004.063.008.141.008.242 0 .091-.004.174-.012.245a1.43 1.43 0 0 1-.032.186.252.252 0 0 1-.068.109.166.166 0 0 1-.1.033c-.053 0-.146-.036-.266-.107a7.966 7.966 0 0 0-.45-.247 3.808 3.808 0 0 0-.629-.25 2.747 2.747 0 0 0-.816-.111c-.277 0-.524.037-.731.113a1.437 1.437 0 0 0-.512.298 1.164 1.164 0 0 0-.305.446 1.51 1.51 0 0 0-.104.545c0 .28.066.525.196.725.128.204.303.384.52.537.217.158.462.299.737.433.275.129.554.258.842.391.285.133.565.28.84.437.279.159.524.346.737.563.218.22.396.477.524.76.134.297.2.642.2 1.042 0 .474-.088.895-.263 1.266a2.739 2.739 0 0 1-.724.94 3.128 3.128 0 0 1-1.095.58 4.55 4.55 0 0 1-1.353.195c-.337 0-.65-.03-.937-.088a4.853 4.853 0 0 1-.774-.209 3.674 3.674 0 0 1-.565-.256 1.423 1.423 0 0 1-.321-.225.551.551 0 0 1-.134-.238 1.403 1.403 0 0 1-.042-.388c0-.116.005-.208.014-.282a.798.798 0 0 1 .049-.188.205.205 0 0 1 .074-.096.244.244 0 0 1 .113-.024c.072 0 .176.041.31.129.127.091.298.187.507.292.207.103.458.199.753.29.33.098.675.143 1.02.138.27.001.537-.038.795-.117a1.908 1.908 0 0 0 .624-.333c.175-.141.31-.316.405-.528a1.716 1.716 0 0 0 .141-.709 1.332 1.332 0 0 0-.196-.731 1.953 1.953 0 0 0-.516-.533 4.295 4.295 0 0 0-.729-.42l-.836-.392a9.15 9.15 0 0 1-.837-.441 3.49 3.49 0 0 1-.725-.571 2.673 2.673 0 0 1-.52-.766 2.624 2.624 0 0 1-.196-1.058c0-.42.075-.795.23-1.127.153-.33.366-.604.637-.829a2.846 2.846 0 0 1 .978-.512 4.11 4.11 0 0 1 1.22-.175zm27.251-.109c.3 0 .508.05.621.16.112.107.167.308.167.602 0 .305-.058.509-.17.616-.118.113-.326.168-.634.168-.298 0-.507-.055-.62-.163-.113-.104-.166-.308-.166-.604 0-.299.057-.507.17-.616.117-.108.325-.163.632-.163zm-62.548 0c.298 0 .507.05.62.16.108.107.165.308.165.602 0 .305-.057.509-.17.616-.116.113-.328.168-.632.168-.305 0-.508-.055-.62-.163-.113-.104-.167-.308-.167-.604 0-.299.054-.507.17-.616.113-.108.325-.163.633-.163zm58.606-.482c.129 0 .238.004.32.017.084.012.15.028.197.045a.236.236 0 0 1 .103.08.181.181 0 0 1 .039.108v10.387a.234.234 0 0 1-.03.107.214.214 0 0 1-.092.075 1.033 1.033 0 0 1-.179.043 2.157 2.157 0 0 1-.537 0 1.146 1.146 0 0 1-.18-.043.243.243 0 0 1-.098-.075.197.197 0 0 1-.034-.107v-.93c-.33.372-.719.689-1.15.938-.394.22-.83.333-1.306.333-.511 0-.954-.1-1.316-.3a2.451 2.451 0 0 1-.887-.812 3.615 3.615 0 0 1-.494-1.199 6.593 6.593 0 0 1-.155-1.458c0-.602.062-1.144.192-1.63.132-.488.324-.9.579-1.245.247-.338.572-.61.948-.792a2.94 2.94 0 0 1 1.304-.278 2.4 2.4 0 0 1 1.13.27c.34.18.677.446 1.01.791v-4.075c0-.038.008-.075.024-.109a.209.209 0 0 1 .105-.079c.164-.05.335-.072.507-.062zm-32.663-.033c.13 0 .235.004.317.016a.634.634 0 0 1 .195.047.226.226 0 0 1 .104.078.18.18 0 0 1 .03.11v10.419a.173.173 0 0 1-.03.103.264.264 0 0 1-.104.075.817.817 0 0 1-.195.046c-.21.02-.42.02-.629 0a.911.911 0 0 1-.2-.045.236.236 0 0 1-.104-.075.202.202 0 0 1-.025-.104v-10.421c0-.037.008-.075.025-.108a.213.213 0 0 1 .104-.079.76.76 0 0 1 .2-.046 2.185 2.185 0 0 1 .312-.016zm71.7 4.404c-.33 0-.608.08-.837.238a1.797 1.797 0 0 0-.557.616 3.013 3.013 0 0 0-.313.864 5.162 5.162 0 0 0-.095.984c0 .35.024.695.083 1.037.053.337.146.636.282.898.133.264.313.476.537.633.225.158.504.238.842.238.175 0 .337-.026.496-.07.172-.055.337-.133.487-.234.166-.108.34-.25.524-.425.183-.175.374-.391.579-.646v-2.805c-.35-.432-.688-.762-1.013-.987a1.774 1.774 0 0 0-1.014-.34zm-8.305-.03c-.384 0-.712.068-.986.205a1.807 1.807 0 0 0-.683.57 2.611 2.611 0 0 0-.396.878c-.09.363-.133.736-.129 1.109 0 .387.033.745.104 1.082.071.34.191.637.353.886.168.254.388.454.667.6.28.148.624.224 1.037.224.379 0 .707-.07.986-.203a1.85 1.85 0 0 0 .682-.57c.18-.242.31-.534.397-.875.086-.365.128-.74.125-1.115a5.198 5.198 0 0 0-.11-1.075 2.713 2.713 0 0 0-.349-.89 1.754 1.754 0 0 0-.66-.604c-.276-.146-.626-.221-1.038-.221zm16.432-.07a1.912 1.912 0 0 0-.838.18 1.844 1.844 0 0 0-.603.474 2.183 2.183 0 0 0-.38.691 2.974 2.974 0 0 0-.148.824h3.829c.017-.675-.133-1.207-.45-1.59-.315-.387-.786-.579-1.41-.579zm.066-1.007c.554 0 1.02.092 1.407.267.369.163.697.408.96.715.247.296.43.65.547 1.05.118.42.177.854.175 1.29v.238c0 .199-.05.345-.154.431a.529.529 0 0 1-.346.126h-4.624c0 .391.041.74.12 1.053.076.313.208.583.391.804.184.223.421.395.712.515.292.122.65.18 1.074.18a4.692 4.692 0 0 0 1.57-.266c.192-.067.35-.13.47-.183a.778.778 0 0 1 .28-.08c.037 0 .07.009.1.025a.218.218 0 0 1 .066.084.911.911 0 0 1 .033.149c.016.138.017.278.004.416a1.091 1.091 0 0 1-.022.134.347.347 0 0 1-.107.191.973.973 0 0 1-.254.142 3.316 3.316 0 0 1-.546.192 8.168 8.168 0 0 1-.774.166 5.68 5.68 0 0 1-.941.075c-.579 0-1.082-.08-1.515-.24a2.857 2.857 0 0 1-1.099-.717 3.144 3.144 0 0 1-.67-1.196c-.15-.48-.225-1.031-.225-1.669 0-.604.08-1.144.233-1.624.14-.45.37-.868.674-1.228a3 3 0 0 1 1.066-.77 3.484 3.484 0 0 1 1.395-.27zm-16.448 0c.58 0 1.082.086 1.51.258.412.16.78.417 1.07.75.289.327.5.724.647 1.194.14.467.212.995.212 1.583 0 .57-.075 1.097-.224 1.577a3.44 3.44 0 0 1-.676 1.245 3.053 3.053 0 0 1-1.124.816c-.45.195-.97.29-1.56.29-.58 0-1.083-.086-1.511-.257a2.705 2.705 0 0 1-1.07-.75 3.155 3.155 0 0 1-.642-1.19 5.497 5.497 0 0 1-.213-1.59c0-.575.075-1.099.226-1.582a3.37 3.37 0 0 1 .67-1.24 3.003 3.003 0 0 1 1.12-.813c.445-.195.966-.29 1.566-.29zm-7.739-2.648c.291 0 .575.025.849.08.28.053.533.124.767.207.232.084.44.18.623.288.184.107.31.198.38.27a.81.81 0 0 1 .133.159c.026.039.043.083.053.129a1.993 1.993 0 0 1 .026.682.693.693 0 0 1-.046.183.246.246 0 0 1-.074.109.15.15 0 0 1-.105.037c-.075 0-.175-.05-.309-.153a4.795 4.795 0 0 0-.503-.333 3.902 3.902 0 0 0-.753-.339 3.347 3.347 0 0 0-1.062-.15c-.45 0-.858.088-1.228.267a2.613 2.613 0 0 0-.945.792 3.916 3.916 0 0 0-.607 1.278 6.337 6.337 0 0 0-.218 1.719c0 .637.072 1.203.209 1.695.142.49.337.902.596 1.232.262.328.578.578.953.749.379.166.803.253 1.277.253.405 0 .754-.05 1.054-.149.267-.084.525-.194.77-.33.179-.1.351-.212.52-.332.137-.1.246-.15.32-.15a.178.178 0 0 1 .097.025c.028.022.05.053.061.087.02.06.032.121.039.183.004.08.007.18.007.299 0 .085 0 .155-.003.218a1.31 1.31 0 0 1-.03.162.434.434 0 0 1-.05.125.655.655 0 0 1-.107.133 2.125 2.125 0 0 1-.33.238 3.666 3.666 0 0 1-.62.312 4.831 4.831 0 0 1-.85.258 4.883 4.883 0 0 1-1.048.104 4.632 4.632 0 0 1-1.774-.325 3.571 3.571 0 0 1-1.349-.97c-.374-.425-.657-.948-.858-1.577-.202-.625-.298-1.35-.298-2.165 0-.837.103-1.582.32-2.236.191-.609.5-1.175.908-1.665a3.88 3.88 0 0 1 1.402-1.041 4.387 4.387 0 0 1 1.803-.358zm18.66-.616c.127 0 .236.004.319.017a1.018 1.018 0 0 1 .195.046.262.262 0 0 1 .104.078.181.181 0 0 1 .038.11v10.386a.239.239 0 0 1-.029.107.207.207 0 0 1-.096.075.891.891 0 0 1-.175.043 2.149 2.149 0 0 1-.536 0 1.164 1.164 0 0 1-.18-.043.248.248 0 0 1-.1-.075.193.193 0 0 1-.032-.107v-.93a4.776 4.776 0 0 1-1.15.938 2.654 2.654 0 0 1-1.307.333c-.512 0-.953-.1-1.316-.3a2.458 2.458 0 0 1-.886-.812 3.609 3.609 0 0 1-.496-1.199 6.572 6.572 0 0 1-.153-1.458c0-.602.062-1.144.191-1.63.134-.488.325-.9.579-1.245.247-.338.572-.61.949-.792a2.944 2.944 0 0 1 1.303-.278c.412 0 .786.092 1.127.27a4.07 4.07 0 0 1 1.013.792v-4.076a.26.26 0 0 1 .024-.109c.016-.034.054-.058.105-.078.065-.02.132-.036.2-.046.083-.013.182-.017.308-.017z" clip-rule="evenodd" stroke-width="1.06574"/><g mask="url(#a)" transform="matrix(1.06574 0 0 1.06574 -2.798 -.297)"><path fill="#0065a9" d="M114.178 11.66 91.925.945A6.727 6.727 0 0 0 84.25 2.25L11.402 68.67a4.5 4.5 0 0 0 .005 6.655l5.95 5.41a4.5 4.5 0 0 0 5.748.255l87.725-66.55c2.943-2.233 7.17-.134 7.17 3.56v-.258a6.75 6.75 0 0 0-3.822-6.082z"/><g filter="url(#b)"><path fill="#007acc" d="m114.178 96.34-22.253 10.714a6.727 6.727 0 0 1-7.675-1.304L11.402 39.33a4.5 4.5 0 0 1 .005-6.655l5.95-5.41a4.5 4.5 0 0 1 5.748-.255l87.725 66.55c2.943 2.233 7.17.134 7.17-3.56v.258a6.75 6.75 0 0 1-3.822 6.082z"/></g><g filter="url(#c)"><path fill="#1f9cf0" d="M91.926 107.056a6.729 6.729 0 0 1-7.676-1.306c2.49 2.491 6.75.727 6.75-2.796V5.046c0-3.523-4.26-5.287-6.75-2.796A6.73 6.73 0 0 1 91.926.943l22.249 10.7A6.75 6.75 0 0 1 118 17.726v72.548a6.75 6.75 0 0 1-3.825 6.083z"/></g><path fill="url(#d)" fill-rule="evenodd" d="M86.52 107.262a6.72 6.72 0 0 0 5.357-.205l22.235-10.7a6.751 6.751 0 0 0 3.822-6.083V17.726a6.749 6.749 0 0 0-3.822-6.083L91.877.943a6.724 6.724 0 0 0-7.672 1.307L41.638 41.085 23.097 27.01a4.495 4.495 0 0 0-5.744.256l-5.947 5.41a4.502 4.502 0 0 0-.005 6.654L27.481 54l-16.08 14.67a4.502 4.502 0 0 0 .005 6.655l5.947 5.41a4.495 4.495 0 0 0 5.743.255l18.542-14.075 42.567 38.835a6.707 6.707 0 0 0 2.314 1.512zm4.43-77.78L58.653 54l32.299 24.517V29.483Z" clip-rule="evenodd" opacity=".25" style="mix-blend-mode:overlay"/></g><defs><filter id="b" width="124.732" height="98.292" x="1.601" y="17.762" color-interpolation-filters="sRGB" filterUnits="userSpaceOnUse"><feFlood flood-opacity="0" result="BackgroundImageFix"/><feColorMatrix in="SourceAlpha" result="hardAlpha" values="0 0 0 0 0 0 0 0 0 0 0 0 0 0 0 0 0 0 127 0"/><feOffset/><feGaussianBlur stdDeviation="4.167"/><feColorMatrix values="0 0 0 0 0 0 0 0 0 0 0 0 0 0 0 0 0 0 0.25 0"/><feBlend in2="BackgroundImageFix" mode="overlay" result="effect1_dropShadow_2383_31"/><feBlend in="SourceGraphic" in2="effect1_dropShadow_2383_31" result="shape"/></filter><filter id="c" width="50.417" height="124.11" x="75.917" y="-8.055" color-interpolation-filters="sRGB" filterUnits="userSpaceOnUse"><feFlood flood-opacity="0" result="BackgroundImageFix"/><feColorMatrix in="SourceAlpha" result="hardAlpha" values="0 0 0 0 0 0 0 0 0 0 0 0 0 0 0 0 0 0 127 0"/><feOffset/><feGaussianBlur stdDeviation="4.167"/><feColorMatrix values="0 0 0 0 0 0 0 0 0 0 0 0 0 0 0 0 0 0 0.25 0"/><feBlend in2="BackgroundImageFix" mode="overlay" result="effect1_dropShadow_2383_31"/><feBlend in="SourceGraphic" in2="effect1_dropShadow_2383_31" result="shape"/></filter><linearGradient id="d" x1="63.934" x2="63.934" y1=".278" y2="107.722" gradientUnits="userSpaceOnUse"><stop stop-color="#fff"/><stop offset="1" stop-color="#fff" stop-opacity="0"/></linearGradient></defs></symbol>
<symbol id="icon-trello"  viewBox="0 0 128 128"><path fill="#0052cc" d="M12.5 0C5.575 0 0 5.575 0 12.5v103c0 6.925 5.575 12.5 12.5 12.5h103c6.925 0 12.5-5.575 12.5-12.5v-103C128 5.575 122.425 0 115.5 0Zm10.14 16.64h27.04c3.324 0 6 2.677 6 6v76c0 3.325-2.676 6-6 6H22.64c-3.323 0-6-2.675-6-6v-76c0-3.323 2.677-6 6-6zm55.68 0h27.04c3.323 0 6 2.677 6 6v44c0 3.325-2.677 6-6 6H78.32c-3.324 0-6-2.675-6-6v-44c0-3.323 2.676-6 6-6z"/></symbol>
    <symbol id="icon-earth" viewBox="0 0 32 32">
<path d="M16 32c-8.836 0-16-7.164-16-16s7.164-16 16-16c8.836 0 16 7.164 16 16s-7.164 16-16 16zM28.968 14.659c0.026-0.013 0.040-0.035 0.050-0.070 0.021 0.111 0.072 0.209 0.154 0.281 0.002 0.010-0.003 0.008 0.002 0.022 0.008 0 0.014-0.006 0.021-0.006 0.084 0.068 0.188 0.114 0.305 0.114 0.18 0 0.33-0.1 0.418-0.241 0.006 0.007 0.016 0.016 0.021 0.024-0.001-0.016-0.003-0.032-0.005-0.048 0.039-0.071 0.066-0.149 0.066-0.235 0-0.276-0.225-0.5-0.5-0.5-0.176 0-0.322 0.096-0.412 0.232-0.004-0.003 0-0.015-0.011-0.011 0.013-0.038-0.022-0.135-0.077-0.239v0.518c0 0.057-0.016 0.108-0.032 0.159zM5.992 14.509c0-0.151-0.344-0.408-0.433-0.408 0-0.027-0.14-0.335-0.193-0.335 0-0.104-0.365-0.571-0.423-0.367-0.038 0.132 0.279 0.31 0.279 0.463 0.059 0 0.307 0.47 0.356 0.552 0.542 0.916-0.405 0.29-0.405-0.098-0.121-0.060-0.312-0.521-0.312-0.647-0.071-0.057-0.281-0.502-0.264-0.502 0-0.292-0.161-0.432-0.481-0.432-0.015-0.029-0.284-0.407-0.289-0.407 0-0.12-0.216-0.492-0.336-0.551 0-0.249-0.128-0.556-0.071-0.814 0-0.271-0.014-0.578-0.106-0.856-0.835 1.793-1.314 3.785-1.314 5.893 0 6.041 3.834 11.174 9.196 13.137 0.006-0.496 0.043-1.090 0.156-1.090 0-0.074 0.063-0.384 0.12-0.384 0-0.19 0.023-0.419 0-0.647-0.071-0.143 0.094-0.326 0.144-0.551 0.277-0.139 0.081-1.533 0.29-1.533 0-0.697 0.156-1.103 0.047-1.749 0.053 0-0.315-0.391-0.312-0.384-0.353 0-0.6-0.566-0.6-0.814-0.034-0.109-0.121-0.272-0.121-0.407 0.081 0-0.505-0.856-0.505-0.839-0.31-0.172 0.017-0.412 0.048-0.694-0.269-0.089 0.003-0.815 0.12-0.815 0.012-0.092 0.060-0.155 0.145-0.191 0.060 0.239 0.339-0.119 0.12-0.119 0-0.158-0.018-0.496 0-0.575 0-0.244-0.216-0.722-0.384-0.216-0.18-0.089-0.634-0.073-0.673-0.359 0.028-0.141-0.259-0.429-0.36-0.479 0.094-0.246-0.487-0.575-0.697-0.575 0-0.053-0.111-0.029-0.144-0.096-0.214 0-0.263-0.288-0.505-0.288-0.279 0-0.56-0.191-0.817-0.191-0.086-0.171-0.485-0.104-0.577-0.288-0.209 0-0.291-0.396-0.297-0.542-0.009-0.18-0.152-0.802-0.402-0.802zM26.248 6.484c-0.002 0.006 0.002 0.002-0.008 0.022 0.015 0 0.033 0.017 0.050 0.024-0.015-0.015-0.028-0.030-0.042-0.046zM26.549 6.815c0.035 0.068 0.061 0.131 0.053 0.17 0.035 0.001 0.052-0.018 0.080-0.025-0.043-0.049-0.090-0.095-0.133-0.145zM27.418 11.371c0.016-0.432-0.36-0.36-0.479-0.6-0.124 0-0.169-0.096-0.337-0.096-0.109-0.037-0.195-0.011-0.258 0.078-0.257 0.098-0.102-0.125-0.295-0.125 0.009-0.247-0.089-0.315-0.361-0.288-0.156 0.352-0.396 0.563-0.36 0.959 0.115 0.026 0.095 0.052 0.072 0.167 0.153 0.008 1.081-0.048 1.081-0.144 0.032 0 0.193 0.331 0.193 0.048 0.129 0 0.197 0.303 0.505 0.215 0 0.062 0.514-0.214 0.239-0.214zM27.467 16.474c0.018-0.088-0.044-0.127-0.096-0.216 0.137 0-0.433-1.057-0.433-1.222-0.087-0.043-0.198-0.345-0.218-0.455-0.117-0.078-0.238-0.334-0.288-0.479-0.119-0.079-0.409-0.433-0.456-0.599 0.172 0.019 0.432 0.054 0.432-0.168-0.116 0-0.133-0.143-0.023-0.143-0.036-0.147 0.078-0.253 0.103-0.368 0.030-0.139 0.089-0.353 0.089-0.519-0.165 0-0.205 0.028-0.336 0.072 0 0.097-0.293-0.024-0.336-0.024-0.063-0.126-0.52 0.164-0.648-0.096-0.207-0.187-0.151-0.331-0.218-0.595-0.034-0.134-0.217-0.142-0.328-0.164-0.313-0.061-0.087 0.373-0.104 0.472 0.192 0-0.121 0.238-0.121 0.359-0.324-0.070-0.216-0.431-0.407-0.527-0.057-0.096-0.012-0.168-0.145-0.168 0-0.128 0.068-0.36-0.072-0.407 0-0.062-0.272-0.087-0.312-0.168-0.172 0-0.572-0.65-0.695-0.431-0.077 0.14 0.065 0.174 0.094 0.288 0.249-0.049 0.225 0.41 0.529 0.359 0 0.064 0.008 0.129 0.023 0.192 0.225-0.053 0.199 0.167 0.312 0.167-0.082 0.109-0.342-0.174-0.271 0.064 0.041 0.138 0.018 0.256-0.161 0.391 0-0.149-0.012-0.551-0.168-0.551-0.106-0.212-0.421-0.161-0.554-0.359-0.108 0-0.15-0.336-0.336-0.359-0.035 0.049-0.166 0.096-0.217 0.096-0.101 0.203-0.672 0.021-0.672 0.048-0.009 0.002-0.32 0.762-0.338 0.862-0.035 0.215-0.208 0.219-0.26 0.423-0.026 0.102-0.653 0.054-0.653 0.129-0.271-0.090-0.505-0.28-0.505-0.575-0.022 0 0.051-0.753 0.097-0.863 0.055 0.015 0.066 0.034 0.097 0.096 0.166-0.062 0.553 0.041 0.553-0.144 0.161 0.004 0.209 0.068 0.144 0.192 0.15 0.028 0.409 0.066 0.409-0.144-0.088 0-0.097-0.008-0.097-0.096 0.288-0.299-0.216-0.569-0.216-0.718-0.102-0.034-0.31-0.255-0.162-0.172 0.125 0.069 0.582 0.212 0.402-0.092 0.012-0.004 0.020-0.012 0.023-0.023 0.051 0.036 0.266 0.257 0.266 0.048 0.059 0 0.287-0.144 0.096-0.144 0.018-0.108 0.014-0.198 0.023-0.264 0.305 0.164 0.135-0.112 0.289-0.215 0 0.199 0.164-0.096 0.264-0.096 0.119-0.177 0.391-0.040 0.457-0.24-0.147-0.048-0.12-0.416-0.12-0.55 0.177 0.029 0.374-0.239 0.401-0.055 0.010 0.071 0.019 0.267 0.055 0.294 0.263 0.138 0.193-0.079 0.193-0.215-0.088 0-0.205-0.308-0.217-0.456-0.072 0.010-0.188 0.040-0.217 0.095-0.262 0-0.44-0.095-0.648-0.095-0.016-0.032-0.266-0.312-0.24-0.312-0.146-0.251 0.146-0.178 0.192-0.19 0-0.238 0.991-0.196 1.034-0.576-0.326 0 0.336-0.552 0.336-0.55 0.221-0.189 0.338-0.352 0.613-0.373 0.116-0.008 1.406-0.364 1.406-0.203 0.052 0.002 0.224 0.004 0.402 0.010-2.497-2.322-5.834-3.752-9.513-3.752-3.563 0-6.806 1.342-9.277 3.535 0.022 0.050 0.039 0.098 0.038 0.132 0.131-0.009 0.319-0.093 0.361 0.073-0.065-0.001-0.13-0.009-0.192-0.025 0.046 0.371-0.162 0.144-0.336 0.144 0-0.009-0.077-0.040-0.159-0.062-0.053 0.050-0.109 0.097-0.162 0.147 0.006 0.016-0.003 0.017 0.007 0.035 0.056 0 0.027 0.087 0.187 0.14 0.185 0.063 0.388 0.098 0.583 0.129 0.158 0.025 0.249-0.029 0.384-0.029 0-0.020 0.33-0.167 0.097-0.167 0.032-0.132-0.027-0.165-0.169-0.167 0.012-0.14 0.345-0.048 0.481-0.048 0.104-0.175 0.003-0.154 0.095-0.313 0.11-0.195 0.241-0.026 0.313-0.213 0.109 0.040 0.206 0.099 0.241 0.237 0.087 0.072 0.529 0.724 0.529 0.263 0.158 0.053 0.237 0.349 0.24 0.504 0.287-0.042 0.312-0.257 0.312-0.48 0.066 0-0.024-0.107-0.024-0.144 0.107-0.039 0.241 0.102 0.241-0.047 0.046 0 0.048 0.046 0.048 0.096 0.149 0.029 0.245-0.017 0.336 0.015 0.063 0.022 0.031 0.349 0.002 0.464-0.036 0.146-0.315 0.148-0.315 0.216-0.316 0.236 0.373 0.359 0.481 0.503-0.065 0-0.312-0.032-0.312-0.047-0.156 0-0.534 0.165-0.673 0.047 0.194 0 0.259-0.233 0.289-0.455-0.179-0.067-0.39 0.043-0.44 0.221-0.084 0.294-0.279-0.012-0.377 0.186-0.038 0.012-0.385 0.173-0.385 0.119-0.39 0.055-0.288 0.386-0.288 0.743 0.155 0.093 0.47 0.358 0.456 0.503 0.35 0.062 0.478 0.099 0.793 0.144 0.026 0.051 0.13 0.099 0.193 0.119 0 0.206 0.187 0.169 0.36 0.169 0-0.263 0.306 0.219 0.336 0.311-0.042 0 0.072 0.269 0.096 0.36-0.048-0.017-0.063 0-0.048 0.048 0.152 0.056 0.393 0.040 0.433-0.12-0.146 0-0.097-0.167-0.097-0.264-0.15-0.1-0.127-0.293 0.024-0.335 0 0.136 0.495-0.085 0.216-0.191 0.068-0.153 0.114-0.388 0.003-0.521-0.071-0.084-0.16 0-0.195-0.126 0.189-0.047 0.050-0.407 0.048-0.575 0.060-0.023 0.216 0.038 0.216 0 0.185 0 0.493 0.234 0.601-0.049 0.309 0.141 0.063 0.275 0.385 0.168 0 0.076 0.363 0.431 0.409 0.431 0 0.017-0.009 0.12 0.071 0.12 0 0.077-0.048-0.044-0.048 0.095 0.045 0.005 0.289 0.049 0.289-0.047 0.155 0 0.264-0.19 0.264-0.335 0.097-0.063 0.267 0.527 0.384 0.527 0.086 0.134 0.361 0.329 0.361 0.455 0.058 0.059 0.119 0.043 0.119 0.216 0.073 0 0.217-0.287 0.217-0.024 0.068 0 0.266 0.146 0.289 0.263-0.173 0-0.009 0.168-0.098 0.168 0 0.166-0.371 0.034-0.455 0.024-0.115 0.515-0.809 0.145-1.229 0.278-0.221 0.070-0.648 0.557-0.671 0.8 0.268 0.003 0.386-0.232 0.625-0.312 0.195 0 0.233-0.118 0.409-0.167 0 0.049 0.048 0.023 0.048 0.072-0.342 0-0.134 0.221-0.034 0.382 0.062 0.1 0.133 0.148 0.212 0.179-0.033 0.058-0.060 0.116-0.081 0.181 0 0.001-0.001 0-0.001 0.001-0.065 0.022-0.192 0.069-0.217 0.12-0.387 0.043-0.196 0.017-0.17-0.076 0.014 0.033 0.153 0.003 0.147 0.004-0.023-0.116-0.058-0.1-0.024-0.167-0.21 0-0.312 0.096-0.481 0.096-0.028 0.057-0.175 0.192-0.24 0.192-0.049 0.148-0.16 0.417-0.289 0.503 0-0.039-0.342 0.215-0.312 0.215-0.076 0.123-0.159 0.119-0.193 0.311-0.023 0.012-0.12 0.333-0.12 0.383-0.149 0.099-0.204 0.503-0.457 0.503-0.155 0.308-0.433 0.267-0.433 0.671 0.094 0.096 0.13 0.521 0.159 0.657 0.036 0.169 0.092 0.345-0.134 0.349-0.016-0.025-0.174-0.264-0.145-0.264 0-0.099-0.121-0.416-0.192-0.515-0.095-0.133-0.271 0.021-0.409-0.037-0.059-0.118-0.458-0.144-0.6-0.144 0.023 0.089 0.088 0.117 0.096 0.216-0.118 0.048-0.186 0.102-0.308 0.085-0.209-0.029-0.184-0.192-0.414-0.169-0.368 0.037-0.625 0.342-0.625 0.707-0.041 0-0.041 0.719 0 0.719 0 0.203 0.168 0.35 0.168 0.503 0.163 0 0.346 0.359 0.505 0.359 0.018 0.127-0.080 0.147 0.192 0.145 0-0.014 0.148-0.093 0.168-0.192-0.188-0.046-0.001-0.288 0.12-0.335 0 0.171 0.24-0.057 0.24-0.072 0.027-0.011 0.265-0.096 0.265-0.096 0-0.194 0.181 0.019 0.048 0.096-0.13 0-0.12 0.216-0.192 0.216-0.031 0.154-0.092 0.288-0.128 0.438-0.046 0.185 0.104 0.204 0.056 0.377 0.191 0.036 0.384 0.001 0.577 0 0.001-0.034-0.006-0.067-0.024-0.096 0.279 0 0.024 0.527 0.193 0.527 0 0.199 0.096 0.354 0.096 0.479 0.13 0.086 0.208 0.201 0.168 0.359 0.16 0.021 0.504 0.062 0.504-0.144 0.243 0 0.26 0.165 0.242 0.335 0.484 0 0.181-0.479 0.383-0.479 0.019-0.079 0.052-0.093 0.099-0.041 0.099 0.053 0.174-0.099 0.253-0.147 0.025-0.017 0.113-0.068 0.129-0.068 0.068 0.041 0.074 0.029 0.104 0.075 0.132-0.001 0.265-0.075 0.378-0.153 0.173 0.021 0.117 0.393 0.441 0.416 0.13 0.009 0.431 0.045 0.543-0.032 0.028-0.019 0.131 0.065 0.142 0.101 0.108 0 0.1 0.094 0.146 0.092 0.011 0.021 0.027 0.029 0.049 0.023 0.014 0.041 0.1 0.053 0.145 0.167 0 0.104 0.216 0.122 0.216 0.191 0.155 0.078-0.053 0.099 0.185 0.171 0.131 0.041 0.252 0.107 0.393 0.117 0.045-0.171 0.191 0.023 0.265 0.023 0.038 0.078 0.058 0.019 0.095 0.096 0.223 0.186 0.076 0.114 0.168 0.312 0.107 0.070 0.141 0.314 0.17 0.455-0.086 0-0.025 0.329-0.025 0.36-0.104 0 0.266 0.197 0.266-0.049 0.152 0.025 0.252 0.191 0.36 0.191-0.063 0.145 0.168 0.254 0.168 0.025 0.228 0.023 0.167 0.363 0.145 0.479 0.169 0 0.218-0.094 0.362-0.112 0.156-0.099 0.33-0.171 0.527-0.171 0.553 0 1 0.447 1 1 0 0.498-0.371 0.893-0.848 0.969-0.064 0.073-0.122 0.136-0.126 0.136 0 0.048-0.011 0.526-0.025 0.526 0 0.096-0.073 0.623-0.144 0.623 0 0.271-0.177 0.32-0.24 0.575-0.146 0.108-0.541 0.288-0.602 0.407-0.113 0-0.197 0.096-0.312 0.096-0.016 0.033-0.261 0.264-0.217 0.264-0.018 0.17 0.013 0.57-0.079 0.682-0.062 0.074-0.151 0.066-0.112 0.182-0.135 0 0.008 0.096-0.205 0.096-0.134 0-0.373 0.191-0.38 0.353-0.009 0.198-0.062 0.341-0.232 0.462 0 0.068-0.312 0.088-0.312 0.264 0.029 0 0 0.326 0 0.359-0.093-0.003-0.321 0.090-0.36 0.167-0.314 0-0.276 0.032-0.48 0.168 0 0.042-0.029 0.191-0.072 0.191 0 0.243-0.173 0.022-0.313 0.145 0.055 0 0.125 0.239 0.096 0.239 0 0.211-0.131 0.229-0.264 0.384-0.063 0.042-0.123 0.216-0.168 0.216 0 0.142-0.071 0.271-0.071 0.407 0.030 0 0.002 0.061 0.023 0.118 0.067-0.019 0.069-0.095 0.096-0.095 0-0.12 0.191 0.071 0.072 0.071-0.099 0.15-0.206 0.153-0.265 0.36-0.060 0-0.112 0.058-0.156 0.126 1.178 0.321 2.414 0.509 3.696 0.509 4.924 0 9.246-2.548 11.742-6.393 0.015-0.354 0.070-0.692 0.109-0.809 0.098 0.072 0.171 0.207 0.24 0-0.173-0.034-0.131-0.094-0.072-0.239 0.066 0.040 0.199 0.089 0.307 0.082 0.033-0.062 0.059-0.128 0.092-0.19-0.098-0.076 0.037-0.273 0.084-0.177 0.025-0.048 0.047-0.098 0.070-0.146-0.011-0.003-0.008 0.004-0.024-0.001 0-0.087 0.016-0.076 0.073-0.12 0.001 0.009 0 0.009 0.002 0.017 0.873-1.827 1.377-3.864 1.377-6.024 0-0.071-0.010-0.139-0.011-0.21-0.026 0.098-0.075 0.204-0.144 0.228 0 0.063-0.715 0.374-0.672 0.503-0.126 0-0.568 0.126-0.649 0.287-0.089 0-0.448 0.127-0.481 0.192-0.446 0.001-0.361-0.526-0.576-0.526zM29.5 11h-0.531c-0.004-0.005-0.008-0.006-0.012-0.013-0.027 0-0.14-0.254-0.096-0.312 0.043 0 0.063 0.004 0.086 0.006-0.045-0.11-0.094-0.218-0.143-0.327-0.108 0.074-0.203 0.168-0.352 0.177 0 0.041-0.213 0.455 0 0.455 0 0.008 0.004 0.014 0.006 0.021-0.255 0.024-0.458 0.232-0.458 0.493 0 0.276 0.224 0.5 0.5 0.5h0.197c0.012 0.091 0.061 0.17 0.236 0.209 0.055 0.231 0.467 0.313 0.529 0.071-0.174 0-0.117-0.167-0.102-0.28h0.14c0.275 0 0.5-0.224 0.5-0.5s-0.225-0.5-0.5-0.5zM28.043 17.502c0.035 0.002 0.266-0.004 0.266-0.045 0.209 0 0.492-0.029 0.697-0.097 0 0.31-0.261 0.483-0.217 0.791-0.173 0-0.097 0.178-0.097 0.239-0.112 0.069-0.129 0.195-0.264 0.264 0 0.139-0.312 0.369-0.404 0.488-0.104 0.133-0.417 0.364-0.458 0.533 0.011-0.040-0.572 0.607-0.436 0.607 0 0.121-0.164 1.078 0.048 1.078 0 0.084 0.181 0.887 0.071 0.887 0 0.258-0.168 0.416-0.168 0.622-0.082 0.056-0.199 0.087-0.24 0.169-0.147 0-0.218 0.312-0.288 0.312 0 0.333-0.097 0.58-0.097 0.958 0.027 0-0.192 0.539-0.192 0.574-0.177 0.119-0.625 0.546-0.625 0.768 0 0-0.312 0.438-0.36 0.503-0.094 0-0.818 0.136-0.818 0.192-0.154 0-0.552 0.121-0.648-0.024 0-0.152-0.083-0.345-0.096-0.552-0.074 0-0.086-0.311-0.168-0.311 0-0.066-0.459-0.983-0.385-0.983 0-0.095-0.082-0.407-0.096-0.407 0-0.33-0.241-0.605-0.241-0.91-0.071 0-0.218-0.67-0.144-0.67 0-0.352 0.123-0.582 0.174-0.973 0.057-0.429-0.027-0.69-0.102-0.993-0.041 0-0.179-0.229-0.193-0.287-0.193-0.128-0.264-0.382-0.264-0.622 0.126-0.144 0.176-0.685 0.145-0.863-0.243-0.115-0.34-0.072-0.602-0.072-0.155-0.311-1.196-0.119-1.491-0.119 0 0.17-0.725-0.033-0.793-0.168-0.177 0-0.528-0.376-0.528-0.551-0.194-0.129-0.504-0.771-0.504-0.982-0.168-0.084-0.117-0.408-0.025-0.408 0.023-0.090-0.059-0.374-0.098-0.509-0.029-0.101 0.098-0.21 0.098-0.33 0-0.334 0.008-0.488 0.195-0.845 0.059-0.112 0.134-0.217 0.189-0.357 0.1-0.251 0.13-0.012 0.265-0.236 0.129-0.064 0.204-0.278 0.337-0.383 0.058-0.077 0.060-0.109 0-0.168 0.026 0 0.168-0.369 0.168-0.454 0.188-0.261 0.055-0.142 0.24-0.12 0.068-0.074 0.181-0.264 0.288-0.264 0.047-0.093 0.165-0.144 0.265-0.144 0 0.144 0.392-0.047 0.433-0.047 0.067-0.135 0.499-0.288 0.601-0.288 0-0.164 0.852 0.046 0.986 0.024 0-0.024 0-0.048 0-0.072 0.182 0.043 0.514 0.773 0.48 0.935 0.14 0 0.27-0.023 0.361 0 0 0.155 0.292 0.193 0.425 0.2 0.185 0.009 0.728-0.019 0.728-0.272 0.143 0 0.27 0.1 0.242 0.263 0.162 0.018 1.125 0.037 1.057 0.239 0.141 0 0.177 0.241 0.312 0.241-0.027 0.166 0.168 0.599 0.312 0.599 0 0.144 0.090 0.409 0.217 0.502 0.068 0.206 0.293 0.64 0.504 0.767-0.090 0.17 0.137 0.31 0.193 0.479-0.013 0 0.049 0.251 0.119 0.288 0 0.17 0.358 0.863 0.554 0.863 0.013 0.084-0.184 0.122 0.072 0.141zM22.852 12.137c0.037-0.143 0.121-0.032 0.199-0.006 0.185 0.060 0.121-0.003 0.258-0.065 0 0.39-0.224 0.094-0.457 0.071zM22.346 11.418c0.098 0 0.125 0.44-0.144 0.359 0-0.109-0.069-0.311 0.073-0.311 0.041 0.17 0.071 0.101 0.071-0.048zM22.227 11.131c0.111 0.048 0.16 0.032 0.144-0.048 0.146 0.048-0.019 0.152-0.048 0.264-0.075-0.074-0.052-0.1-0.096-0.216zM19.654 8.998c-0.236-0.061 0.243-0.131 0.264-0.191-0.080 0-0.135-0.083-0.104-0.153 0.036-0.083 0.095 0.099 0.177 0.058 0.097-0.010 0.288-0.155 0.19 0.125-0.1 0.284-0.191 0.492-0.551 0.497-0.129-0.13-0.005-0.198 0.024-0.336zM20.544 8.016c0.194 0 0.024 0.144-0.019 0.144 0.033 0.013-0.006 0.129-0.006 0.167 0.18-0.002 0.183-0.112 0.312-0.144-0.027 0.161-0.207 0.192-0.031 0.33 0.093 0.073 0.188 0.159 0.151 0.27 0.229 0 0.263 0.22 0.216 0.479 0.127 0 0.121 0.006 0.121-0.121 0.123 0.034 0.114 0.145 0 0.145-0.114 0.225-0.413 0.215-0.625 0.215-0.002-0.174-0.035-0.185-0.196-0.136-0.22 0.067-0.048-0.175-0.044-0.295 0.024 0 0.499 0.022 0.216-0.072-0.015-0.258-0.073-0.335-0.312-0.335 0-0.176-0.062-0.163-0.091-0.356-0.041-0.285 0.223 0.020 0.308-0.291zM20.471 9.573c0 0.059-0.12 0.106-0.144 0.023 0.023 0.008 0.032 0 0.023-0.023 0.041 0 0.082 0 0.121 0zM18.5 7h-1c-0.276 0-0.5-0.224-0.5-0.5s0.224-0.5 0.5-0.5h1c0.276 0 0.5 0.224 0.5 0.5s-0.224 0.5-0.5 0.5zM12.674 15.85c0.056 0 0.121 0.022 0.121 0.072-0.073 0-0.167 0.069-0.121-0.072zM11.762 15.899c-0.040 0.076-0.364 0.063-0.409-0.025 0.12 0 0.213 0.049 0.336 0 0-0.066-0.055-0.119-0.096-0.191 0.131 0 0.278 0.1 0.457 0.096 0-0.111-0.049 0.024 0-0.12 0.075 0.019 0.256 0.191 0.264 0.263-0.263-0.028-0.275-0.023-0.552-0.023zM10.704 15.324c-0.123 0-0.36-0.107-0.433-0.216 0.119 0.005 0.237 0.054 0.312-0.072 0.305 0.031 0.332 0.241 0.577 0.241 0.046 0.081 0.308 0.267 0.055 0.291-0.191 0.018-0.431-0.086-0.511-0.244zM10.896 15.995c-0.089 0-0.236 0.039-0.168-0.145 0.118 0.016 0.174 0.065 0.168 0.145zM11.064 15.971c-0.048 0.008-0.096 0.016-0.144 0.024 0.014-0.111 0.119-0.235 0.144-0.024zM11.953 17.024c-0.019 0.067-0.016 0.071-0.095 0.071 0.008-0.031 0.015-0.062 0.023-0.095 0.025 0.008 0.048 0.016 0.072 0.024zM9.79 15.036c0.023 0.008 0.048 0.017 0.072 0.024 0.031 0.119 0.096 0.060 0.168 0.024 0 0.139-0.322 0.179-0.24-0.048z"></path>
</symbol>
<symbol id="icon-code" viewBox="0 0 30 28">
<path d="M9.641 21.859l-0.781 0.781c-0.203 0.203-0.516 0.203-0.719 0l-7.281-7.281c-0.203-0.203-0.203-0.516 0-0.719l7.281-7.281c0.203-0.203 0.516-0.203 0.719 0l0.781 0.781c0.203 0.203 0.203 0.516 0 0.719l-6.141 6.141 6.141 6.141c0.203 0.203 0.203 0.516 0 0.719zM18.875 5.187l-5.828 20.172c-0.078 0.266-0.359 0.422-0.609 0.344l-0.969-0.266c-0.266-0.078-0.422-0.359-0.344-0.625l5.828-20.172c0.078-0.266 0.359-0.422 0.609-0.344l0.969 0.266c0.266 0.078 0.422 0.359 0.344 0.625zM29.141 15.359l-7.281 7.281c-0.203 0.203-0.516 0.203-0.719 0l-0.781-0.781c-0.203-0.203-0.203-0.516 0-0.719l6.141-6.141-6.141-6.141c-0.203-0.203-0.203-0.516 0-0.719l0.781-0.781c0.203-0.203 0.516-0.203 0.719 0l7.281 7.281c0.203 0.203 0.203 0.516 0 0.719z"></path>
</symbol>
<symbol id="icon-puzzle" viewBox="0 0 35 32">
<path d="M20.042 3.907c0-1.945-1.559-3.907-5.042-3.907-3.067 0-5.129 1.57-5.129 3.907 0 1.364 0.552 1.986 0.917 2.398 0.193 0.217 0.271 0.315 0.271 0.413 0 0.162 0 0.26-0.558 0.282h-6.098c-2.345 0-4.403 1.869-4.403 4v3.732c0.038 0.944 0.571 1.531 1.392 1.531 0.467 0 0.813-0.267 1.149-0.526 0.45-0.345 0.959-0.737 1.959-0.737 1.696 0 3.5 1.402 3.5 4 0 2.629-1.828 4.462-3.469 4.462-0.99 0-1.508-0.429-1.966-0.807-0.343-0.284-0.697-0.578-1.174-0.578-0.82 0-1.354 0.587-1.392 1.551v4.102c0.001 2.235 2.1 4.27 4.404 4.27h6.129c0.928-0.038 1.527-0.585 1.527-1.396 0-0.487-0.277-0.8-0.522-1.076-0.328-0.369-0.666-0.75-0.666-1.734 0-1.766 1.604-2.907 4.085-2.907s4.086 1.141 4.086 2.907c0 0.984-0.339 1.365-0.666 1.734-0.245 0.276-0.523 0.589-0.523 1.076 0 0.822 0.585 1.356 1.548 1.395l3.941 0.001c2.152 0 3.656-1.677 3.656-4.078v-4.65c0.026-0.122 0.334-0.588 0.804-0.588 0.096 0 0.193 0.079 0.409 0.271 0.41 0.367 1.031 0.922 2.393 0.922 2.184-0.001 4.396-1.675 4.396-4.877 0-3.454-2.009-5-4-5-1.344 0-2.12 0.614-2.634 1.020-0.228 0.18-0.442 0.35-0.564 0.35-0.471 0-0.779-0.468-0.802-0.571-0.001-0.008-0.001-0.016-0.002-0.024v-3.583c0-2.429-1.538-4.192-3.656-4.192h-3.921c-0.013-0.001-0.026-0.002-0.040-0.003-0.528-0.020-0.528-0.117-0.528-0.279 0-0.098 0.078-0.195 0.271-0.413 0.365-0.411 0.918-1.034 0.918-2.398zM18.376 5.642c-0.245 0.276-0.523 0.59-0.523 1.077 0 0.55 0.251 1.212 1.471 1.277 0.023 0.003 0.046 0.004 0.070 0.004h3.948c1.744 0 2.658 1.606 2.658 3.192v3.633c0 0.036-0.007 0.071 0 0.105 0.092 0.611 0.842 1.439 1.802 1.439 0.47 0 0.816-0.274 1.185-0.565 0.476-0.377 1.017-0.804 2.013-0.804 1.822 0 3 1.57 3 4 0 2.664-1.761 3.876-3.396 3.876-0.979 0-1.359-0.339-1.727-0.667-0.276-0.246-0.589-0.525-1.075-0.525-0.96 0-1.711 0.829-1.802 1.44-0.007 0.034 0 0.069 0 0.105v4.694c0 1.531-0.823 3.077-2.658 3.077h-3.921c-0.568-0.023-0.568-0.285-0.568-0.396 0-0.097 0.078-0.195 0.271-0.413 0.365-0.412 0.918-1.034 0.918-2.398 0-1.945-1.572-3.907-5.086-3.907-3.041 0-5.085 1.57-5.085 3.907 0 1.364 0.552 1.986 0.918 2.398 0.192 0.217 0.271 0.315 0.271 0.413 0 0.112 0 0.374-0.548 0.396h-6.109c-1.717 0-3.403-1.62-3.403-3.27v-4.082c0.022-0.571 0.281-0.571 0.392-0.571 0.116 0 0.32 0.169 0.537 0.348 0.498 0.413 1.253 1.037 2.603 1.037 2.157 0 4.468-2.195 4.468-5.462 0-3.248-2.318-5-4.5-5-1.34 0-2.079 0.568-2.568 0.945-0.222 0.171-0.414 0.318-0.54 0.318-0.11 0-0.369 0-0.392-0.551v-3.712c0-1.768 1.794-3 3.403-3h6.115c0.016 0 0.031-0.001 0.047-0.002v0c1.235-0.046 1.494-0.722 1.494-1.28 0-0.487-0.277-0.8-0.522-1.076-0.328-0.369-0.666-0.75-0.666-1.735 0-1.739 1.659-2.907 4.129-2.907 2.455 0 4.042 1.141 4.042 2.907 0 0.984-0.339 1.366-0.666 1.735z"></path>
</symbol>
<symbol id="icon-hat" viewBox="0 0 32 32">
<path d="M32 8c0-1.406-0.957-2.608-2.326-2.924l-13.013-3.003c-0.218-0.049-0.44-0.073-0.661-0.073s-0.443 0.024-0.675 0.076l-12.999 3c-1.37 0.316-2.326 1.518-2.326 2.924s0.957 2.608 2.325 2.924l2.675 0.617v8.459c0 2.654 3.038 5 11 5s11-2.346 11-5v-8.459l2.674-0.617c1.369-0.316 2.326-1.518 2.326-2.924zM25 20c0 1.105-3 3-9 3s-9-1.895-9-3v-7.997l8.338 1.924c0.218 0.049 0.441 0.073 0.662 0.073s0.444-0.024 0.674-0.076l8.326-1.921v7.997zM16.225 11.975c-0.075 0.016-0.15 0.025-0.225 0.025s-0.151-0.009-0.225-0.025l-13-3c-0.454-0.105-0.775-0.509-0.775-0.975s0.321-0.87 0.775-0.975l13-3c0.074-0.016 0.149-0.025 0.225-0.025s0.151 0.009 0.225 0.025l13 3c0.453 0.105 0.775 0.509 0.775 0.975s-0.322 0.87-0.775 0.975l-13 3zM29 13c0-0.553 0.447-1 1-1 0.552 0 1 0.447 1 1v9c0 0.553-0.448 1-1 1-0.553 0-1-0.447-1-1v-9zM30 24c1.104 0 2 2.896 2 4s-0.896 2-2 2c-1.105 0-2-0.896-2-2s0.895-4 2-4z"></path>
</symbol>
<symbol id="icon-gmail" viewBox="0 0 32 32">
<path fill="#d14836" style="fill: var(--color1, #d14836)" d="M32 6v20c0 1.133-0.867 2-2 2h-2v-18.151l-12 8.617-12-8.617v18.151h-2c-1.135 0-2-0.867-2-2v-20c0-0.567 0.216-1.067 0.575-1.424 0.359-0.363 0.86-0.576 1.425-0.576h0.667l13.333 9.667 13.333-9.667h0.667c0.567 0 1.067 0.216 1.425 0.576 0.36 0.357 0.575 0.857 0.575 1.424z"></path>
</symbol>
<symbol id="icon-arrow-top" viewBox="0 0 32 32">
<path d="M27.414 12.586l-10-10c-0.781-0.781-2.047-0.781-2.828 0l-10 10c-0.781 0.781-0.781 2.047 0 2.828s2.047 0.781 2.828 0l6.586-6.586v19.172c0 1.105 0.895 2 2 2s2-0.895 2-2v-19.172l6.586 6.586c0.39 0.39 0.902 0.586 1.414 0.586s1.024-0.195 1.414-0.586c0.781-0.781 0.781-2.047 0-2.828z"></path>
</symbol>
<symbol id="icon-female" viewBox="0 0 36 32">
<path d="M22.22 20.726c-0.157-0.024-0.317 0.038-0.425 0.155-0.109 0.116-0.156 0.278-0.126 0.435 0.276 1.45 1.205 3.44 4.057 4.679 0.338 0.146 0.86 0.26 1.522 0.403 2.478 0.536 6.622 1.434 7.64 5.232 0.060 0.223 0.262 0.37 0.483 0.37 0.043 0 0.086-0.006 0.13-0.017 0.267-0.072 0.425-0.346 0.354-0.613-1.177-4.387-5.872-5.404-8.395-5.95-0.584-0.127-1.089-0.236-1.336-0.344-1.714-0.744-2.821-1.848-3.301-3.286 4.762 0.354 6.918-1.543 7.013-1.629 0.118-0.107 0.179-0.266 0.161-0.425s-0.11-0.3-0.249-0.38c-2.748-1.57-2.748-6.995-2.748-9.038 0-5.713-3.848-10.242-8.781-10.313-0.014-0.001-0.121-0.003-0.141-0.003 0 0 0 0-0.001 0-5.005 0.028-9.077 4.562-9.077 10.108 0 2.043 0 7.469-2.748 9.038-0.145 0.083-0.238 0.232-0.251 0.398-0.012 0.166 0.060 0.328 0.191 0.431 0.138 0.107 3.188 2.441 6.941 1.732-0.502 1.378-1.594 2.438-3.258 3.161-0.241 0.105-0.721 0.22-1.277 0.352-2.54 0.604-7.269 1.729-8.453 6.147-0.071 0.268 0.087 0.541 0.354 0.613 0.271 0.067 0.541-0.088 0.613-0.354 1.029-3.844 5.217-4.839 7.718-5.435 0.627-0.149 1.122-0.267 1.444-0.406 2.852-1.239 3.78-3.229 4.057-4.679 0.033-0.173-0.027-0.351-0.159-0.467-0.131-0.117-0.312-0.157-0.482-0.104-2.707 0.852-5.208-0.32-6.301-0.97 2.611-2.186 2.611-7.217 2.611-9.457 0-4.997 3.626-9.083 8.12-9.11 0.005 0 0.102 0.006 0.106 0.006 4.432 0.063 7.774 4.066 7.774 9.312 0 2.241 0 7.283 2.622 9.469-0.903 0.516-2.962 1.351-6.402 0.939z"></path>
</symbol>
<symbol id="icon-code" viewBox="0 0 30 28">
<path d="M9.641 21.859l-0.781 0.781c-0.203 0.203-0.516 0.203-0.719 0l-7.281-7.281c-0.203-0.203-0.203-0.516 0-0.719l7.281-7.281c0.203-0.203 0.516-0.203 0.719 0l0.781 0.781c0.203 0.203 0.203 0.516 0 0.719l-6.141 6.141 6.141 6.141c0.203 0.203 0.203 0.516 0 0.719zM18.875 5.187l-5.828 20.172c-0.078 0.266-0.359 0.422-0.609 0.344l-0.969-0.266c-0.266-0.078-0.422-0.359-0.344-0.625l5.828-20.172c0.078-0.266 0.359-0.422 0.609-0.344l0.969 0.266c0.266 0.078 0.422 0.359 0.344 0.625zM29.141 15.359l-7.281 7.281c-0.203 0.203-0.516 0.203-0.719 0l-0.781-0.781c-0.203-0.203-0.203-0.516 0-0.719l6.141-6.141-6.141-6.141c-0.203-0.203-0.203-0.516 0-0.719l0.781-0.781c0.203-0.203 0.516-0.203 0.719 0l7.281 7.281c0.203 0.203 0.203 0.516 0 0.719z"></path>
</symbol>
<symbol id="icon-handshake" viewBox="0 0 36 28">
<path d="M3 18c1.313 0 1.313-2 0-2s-1.313 2 0 2zM26.016 17.094c-1.234-1.609-2.438-3.25-3.844-4.719l-1.953 2.188c-1.719 1.953-4.797 1.906-6.469-0.094-1.188-1.437-1.188-3.5 0.031-4.922l2.766-3.219c-0.969-0.5-2.141-0.328-3.187-0.328-0.922 0-1.813 0.375-2.469 1.031l-2.469 2.469h-2.422v8.5c0.688 0 1.312-0.094 1.859 0.438l4.641 4.562c0.953 0.922 2.187 1.734 3.547 1.734 0.703 0 1.453-0.234 1.953-0.734 1.172 0.406 2.531-0.25 2.891-1.453 0.75 0.063 1.437-0.172 1.984-0.688 0.359-0.328 0.828-0.984 0.781-1.5 0.141 0.141 0.484 0.156 0.672 0.156 1.859 0 2.828-1.953 1.687-3.422zM28.5 18h1.5v-8h-1.453l-2.453-2.812c-0.656-0.75-1.641-1.188-2.641-1.188h-2.609c-0.875 0-1.719 0.391-2.281 1.047l-3.266 3.797c-0.578 0.688-0.578 1.656-0.016 2.344 0.891 1.062 2.531 1.078 3.453 0.047l3.016-3.406c0.719-0.797 2.031-0.047 1.703 0.969 0.594 0.688 1.234 1.359 1.813 2.047 0.781 0.969 1.531 1.984 2.297 2.969 0.484 0.625 0.844 1.375 0.938 2.188zM33 18c1.313 0 1.313-2 0-2s-1.313 2 0 2zM36 9v10c0 0.547-0.453 1-1 1h-6.781c-0.562 1.359-1.797 2.266-3.234 2.469-0.672 0.984-1.703 1.734-2.859 1.984-0.859 1.094-2.25 1.75-3.641 1.656-2.578 1.453-5.484 0.187-7.406-1.703l-4.484-4.406h-5.594c-0.547 0-1-0.453-1-1v-10.5c0-0.547 0.453-1 1-1h6.578c1.813-1.813 3.062-3.5 5.781-3.5h1.828c1.016 0 2 0.313 2.828 0.875 0.828-0.562 1.813-0.875 2.828-0.875h2.609c2.969 0 4.203 1.937 6 4h5.547c0.547 0 1 0.453 1 1z"></path>
</symbol>
   </defs>
  </svg>